<svg xmlns="http://www.w3.org/2000/svg" version="1.1" xmlns:xlink="http://www.w3.org/1999/xlink" xmlns:svgjs="http://svgjs.dev/svgjs" viewBox="0 0 800 800"><defs><filter id="bbburst-blur-1" x="-100%" y="-100%" width="400%" height="400%"><feGaussianBlur in="SourceGraphic" stdDeviation="1"></feGaussianBlur></filter><filter id="bbburst-blur-2" x="-100%" y="-100%" width="400%" height="400%"><feGaussianBlur in="SourceGraphic" stdDeviation="2"></feGaussianBlur></filter><filter id="bbburst-blur-3" x="-100%" y="-100%" width="400%" height="400%"><feGaussianBlur in="SourceGraphic" stdDeviation="4"></feGaussianBlur></filter><filter id="bbburst-blur-4" x="-100%" y="-100%" width="400%" height="400%"><feGaussianBlur in="SourceGraphic" stdDeviation="12"></feGaussianBlur></filter><symbol id="bbburst-shape-1" viewBox="0 0 194 167"><path d="m97 0 96.129 166.5H.871L97 0Z"></path></symbol><symbol id="bbburst-shape-4" viewBox="0 0 149 143"><path d="M71.647 2.781c.898-2.764 4.808-2.764 5.706 0l15.445 47.534a3 3 0 0 0 2.853 2.073h49.98c2.906 0 4.115 3.719 1.764 5.427L106.96 87.193a2.999 2.999 0 0 0-1.09 3.354l15.445 47.534c.898 2.764-2.266 5.062-4.617 3.354l-40.435-29.378a3 3 0 0 0-3.526 0l-40.435 29.378c-2.351 1.708-5.515-.59-4.617-3.354L43.13 90.547a3 3 0 0 0-1.09-3.354L1.605 57.815c-2.35-1.708-1.142-5.427 1.764-5.427h49.98a3 3 0 0 0 2.853-2.073L71.647 2.781Z"></path></symbol><symbol id="bbburst-shape-6" viewBox="0 0 133 116"><path d="M59.7487 10.2513c-13.6683-13.66839-35.8291-13.66839-49.4974 0-13.66839 13.6683-13.66839 35.8291 0 49.4974l49.4974-49.4974ZM66.5 66.5 41.7513 91.2487 66.5 115.997l24.7487-24.7483L66.5 66.5Zm56.249-6.7513c13.668-13.6683 13.668-35.8291 0-49.4974-13.669-13.66839-35.8294-13.66839-49.4977 0l49.4977 49.4974Zm-112.4977 0 31.5 31.5 49.4974-49.4974-31.5-31.5-49.4974 49.4974Zm80.9974 31.5 31.5003-31.5-49.4977-49.4974-31.5 31.5 49.4974 49.4974Z"></path></symbol><symbol id="bbburst-shape-8" viewBox="0 0 87 168"><path d="m12 12 31.2546 18.0749c16.4102 9.4902 20.014 31.6325 7.4603 45.8369L36.3296 92.1884c-12.5684 14.2206-8.9394 36.3916 7.5068 45.8636L75 156" stroke-width="14" stroke-linecap="round" stroke-linejoin="round"></path></symbol><symbol id="bbburst-shape-10" viewBox="0 0 145 145"><circle cx="72.5" cy="72.5" r="61.5" fill="none" stroke-width="22"></circle></symbol></defs><use xlink:href="#bbburst-shape-4" width="32.93843597007954" opacity="0.19335451453839103" transform="matrix(1.1502653432153536,0.48927460612386664,-0.48927460612386664,1.1502653432153536,797.9912368437623,219.64610607165355)" fill="#00a19d" filter="url(#bbburst-blur-3)"></use><use xlink:href="#bbburst-shape-8" width="33.96005897822532" opacity="0.531100768836481" transform="matrix(0.9999861640260447,0.005260395087492905,-0.005260395087492905,0.9999861640260447,225.10629426882352,137.45598191042694)" fill="none" stroke="#2c2891" filter="url(#bbburst-blur-2)"></use><use xlink:href="#bbburst-shape-4" width="11.94707169804389" opacity="0.9198065463735359" transform="matrix(0.7135340917643632,-0.700620510611847,0.700620510611847,0.7135340917643632,91.78474769124136,91.57632938931408)" fill="#ffbd9b"></use><use xlink:href="#bbburst-shape-1" width="29.11121077873313" opacity="0.35975532045541403" transform="matrix(0.9311832316582441,-0.36455149029802214,0.36455149029802214,0.9311832316582441,527.3573902577793,4.582179250813965)" fill="#2c2891" filter="url(#bbburst-blur-2)"></use><use xlink:href="#bbburst-shape-6" width="22.469839574208034" opacity="0.6581423346212744" transform="matrix(0.9990532683832417,-0.04350364275279046,0.04350364275279046,0.9990532683832417,524.5214439134172,-13.673558771860883)" fill="#ffbd9b" filter="url(#bbburst-blur-1)"></use><use xlink:href="#bbburst-shape-6" width="28.593226505434945" opacity="0.5526054877895465" transform="matrix(0.7381023042865043,-0.6746888085680336,0.6746888085680336,0.7381023042865043,-81.05950680003815,97.68271686756236)" fill="#ffa6d5" filter="url(#bbburst-blur-2)"></use><use xlink:href="#bbburst-shape-4" width="32.994955435706224" opacity="0.1837765980580226" transform="matrix(1.2431898498297667,-0.13030348145864043,0.13030348145864043,1.2431898498297667,692.7047685942083,-133.06694173433192)" fill="#00a19d" filter="url(#bbburst-blur-3)"></use><use xlink:href="#bbburst-shape-8" width="31.87350794184392" opacity="0.14879609729998544" transform="matrix(1.1635744101456478,0.45672156950839066,-0.45672156950839066,1.1635744101456478,684.3948315162678,290.96859559599216)" fill="none" stroke="#ff5c58" filter="url(#bbburst-blur-3)"></use><use xlink:href="#bbburst-shape-4" width="15.34079897721109" opacity="0.8430438942462414" transform="matrix(0.9794941219833551,0.2014727400916966,-0.2014727400916966,0.9794941219833551,448.0611398812101,-59.382627739176485)" fill="#ffa6d5"></use><use xlink:href="#bbburst-shape-4" width="31.230113778343636" opacity="0.1828835308245509" transform="matrix(1.0848594243448475,-0.6209509074074745,0.6209509074074745,1.0848594243448475,-9.876094288414293,-362.30505803371085)" fill="#2c2891" filter="url(#bbburst-blur-3)"></use><use xlink:href="#bbburst-shape-6" width="36.63032404610738" opacity="0.33434214949956653" transform="matrix(0.9620299232052952,0.2729439994900306,-0.2729439994900306,0.9620299232052952,331.9345551530009,-243.28298089473296)" fill="#2c2891" filter="url(#bbburst-blur-2)"></use><use xlink:href="#bbburst-shape-10" width="12.129133477484348" opacity="0.8713088015848347" transform="matrix(0.910445860059442,-0.4136282581021551,0.4136282581021551,0.910445860059442,274.7530495515754,73.86658439395046)" fill="none" stroke="#2c2891"></use><use xlink:href="#bbburst-shape-6" width="13.227357827789557" opacity="0.903866258767895" transform="matrix(0.7144700544597968,-0.6996660212417172,0.6996660212417172,0.7144700544597968,117.04179576636074,75.610132154763)" fill="#2c2891"></use><use xlink:href="#bbburst-shape-10" width="14.74644432145367" opacity="0.9236875739921675" transform="matrix(0.9917523829290787,-0.12816868164451825,0.12816868164451825,0.9917523829290787,307.2593952912136,7.754023977342342)" fill="none" stroke="#00a19d"></use><use xlink:href="#bbburst-shape-1" width="27.899633876148314" opacity="0.3418968193843306" transform="matrix(0.7472197482801731,-0.6645770442771212,0.6645770442771212,0.7472197482801731,348.50685425524676,-82.45253643948172)" fill="#ffa6d5" filter="url(#bbburst-blur-2)"></use><use xlink:href="#bbburst-shape-6" width="18.216106403683813" opacity="0.7760491728918679" transform="matrix(0.9804572805660775,0.19673210461175888,-0.19673210461175888,0.9804572805660775,387.77961062237114,64.63383705627109)" fill="#00a19d" filter="url(#bbburst-blur-1)"></use><use xlink:href="#bbburst-shape-10" width="24.078422751747645" opacity="0.6244694397215476" transform="matrix(0.9607972484320219,-0.2772519565403564,0.2772519565403564,0.9607972484320219,362.5407081138969,165.06937998581805)" fill="none" stroke="#2c2891" filter="url(#bbburst-blur-1)"></use><use xlink:href="#bbburst-shape-4" width="17.47800210077284" opacity="0.7688511415169841" transform="matrix(0.8157041551959568,-0.5784693001327299,0.5784693001327299,0.8157041551959568,218.43962747872044,-8.257212125121043)" fill="#00a19d" filter="url(#bbburst-blur-1)"></use><use xlink:href="#bbburst-shape-1" width="26.264696200130484" opacity="0.5055378157292698" transform="matrix(0.9734798943943715,-0.22877258404346293,0.22877258404346293,0.9734798943943715,260.6921350912276,233.3797577171473)" fill="#00a19d" filter="url(#bbburst-blur-2)"></use><use xlink:href="#bbburst-shape-10" width="14.695304100810482" opacity="0.7654978296470697" transform="matrix(0.9852268530219032,-0.1712543374182306,0.1712543374182306,0.9852268530219032,429.07879595335174,-5.021610062700859)" fill="none" stroke="#ffa6d5" filter="url(#bbburst-blur-1)"></use><use xlink:href="#bbburst-shape-6" width="34.43345802507818" opacity="0.34688637251197685" transform="matrix(0.951062833717442,0.30899755067208723,-0.30899755067208723,0.951062833717442,437.99755227654845,299.8870146601615)" fill="#2c2891" filter="url(#bbburst-blur-2)"></use><use xlink:href="#bbburst-shape-1" width="10.439062904972877" opacity="0.9370168326355632" transform="matrix(0.7730724564868403,0.6343177256087066,-0.6343177256087066,0.7730724564868403,668.803471006218,108.39228544340381)" fill="#ffa6d5"></use><use xlink:href="#bbburst-shape-10" width="35.84549139417322" opacity="0.4916178797478452" transform="matrix(0.9225481663082559,-0.38588195195069014,0.38588195195069014,0.9225481663082559,371.0641003892771,-141.50884181104865)" fill="none" stroke="#ffa6d5" filter="url(#bbburst-blur-2)"></use><use xlink:href="#bbburst-shape-6" width="18.443821085024144" opacity="0.6621722827520128" transform="matrix(0.9261445555410782,-0.37716874504870984,0.37716874504870984,0.9261445555410782,358.8854532774993,128.50583649720932)" fill="#ffa6d5" filter="url(#bbburst-blur-1)"></use><use xlink:href="#bbburst-shape-10" width="13.551024778618094" opacity="0.8276116943863179" transform="matrix(0.9978645269285704,-0.06531757724855086,0.06531757724855086,0.9978645269285704,404.5192098503079,69.25655941407831)" fill="none" stroke="#ffbd9b"></use><use xlink:href="#bbburst-shape-4" width="24.748992195291184" opacity="0.5559026925038018" transform="matrix(0.9959506355669461,-0.08990178815683394,0.08990178815683394,0.9959506355669461,160.56054546702973,61.036667953605615)" fill="#ff5c58" filter="url(#bbburst-blur-1)"></use><use xlink:href="#bbburst-shape-6" width="24.8354576805696" opacity="0.7316827671921099" transform="matrix(0.9943896467327625,0.1057791589619225,-0.1057791589619225,0.9943896467327625,387.3571096559933,-112.0448032890028)" fill="#00a19d" filter="url(#bbburst-blur-1)"></use><use xlink:href="#bbburst-shape-10" width="34.576043595091015" opacity="0.02907430134132749" transform="matrix(1.3807044878298618,-1.0752465379095526,1.0752465379095526,1.3807044878298618,190.48338702826078,228.4389339656624)" fill="none" stroke="#2c2891" filter="url(#bbburst-blur-4)"></use><use xlink:href="#bbburst-shape-10" width="39.38352723193448" opacity="0.15098221001826517" transform="matrix(1.1402089529866257,0.5122729189886408,-0.5122729189886408,1.1402089529866257,456.059898952578,294.3732200443012)" fill="none" stroke="#2c2891" filter="url(#bbburst-blur-3)"></use><use xlink:href="#bbburst-shape-4" width="12.290849636337501" opacity="0.9808446937603705" transform="matrix(0.8563124758962907,-0.5164580753791779,0.5164580753791779,0.8563124758962907,192.1483207797396,53.01663123368024)" fill="#ffa6d5"></use><use xlink:href="#bbburst-shape-1" width="30.975210448821425" opacity="0.5624680699785349" transform="matrix(0.7885163399944054,0.6150138059928633,-0.6150138059928633,0.7885163399944054,700.1494132592017,-110.26203981199913)" fill="#00a19d" filter="url(#bbburst-blur-1)"></use><use xlink:href="#bbburst-shape-10" width="46.85677073312232" opacity="-0.07592582145074256" transform="matrix(1.4519059189121668,0.9769693969760858,-0.9769693969760858,1.4519059189121668,407.3003174495809,-538.7435899455105)" fill="none" stroke="#00a19d" filter="url(#bbburst-blur-4)"></use><use xlink:href="#bbburst-shape-8" width="35.51056675227633" opacity="0.34305920663274014" transform="matrix(0.949540344227618,-0.3136449181544261,0.3136449181544261,0.949540344227618,511.5633833040128,177.20484924672746)" fill="none" stroke="#2c2891" filter="url(#bbburst-blur-2)"></use><use xlink:href="#bbburst-shape-8" width="37.937381980886485" opacity="0.19598317655443942" transform="matrix(1.238074673093197,-0.17225302274611293,0.17225302274611293,1.238074673093197,370.2328742979761,-448.3100509752883)" fill="none" stroke="#2c2891" filter="url(#bbburst-blur-3)"></use><use xlink:href="#bbburst-shape-4" width="27.653283453867445" opacity="0.6725397584307587" transform="matrix(0.9575987228350608,0.2881053384174971,-0.2881053384174971,0.9575987228350608,476.560587652791,158.14656693774435)" fill="#ffa6d5" filter="url(#bbburst-blur-1)"></use><use xlink:href="#bbburst-shape-10" width="30.67616758125711" opacity="0.2530544632143953" transform="matrix(1.1727004446482234,-0.432751276279873,0.432751276279873,1.1727004446482234,29.54750200682429,221.82584557917147)" fill="none" stroke="#ffbd9b" filter="url(#bbburst-blur-3)"></use><use xlink:href="#bbburst-shape-8" width="30.371728787275703" opacity="0.398063105435817" transform="matrix(0.9800525887765617,-0.19873832854374068,0.19873832854374068,0.9800525887765617,36.317559006408146,40.09482936126045)" fill="none" stroke="#ff5c58" filter="url(#bbburst-blur-2)"></use><use xlink:href="#bbburst-shape-4" width="19.415208379789604" opacity="0.7933905274424446" transform="matrix(0.9995166243024093,0.03108886847597434,-0.03108886847597434,0.9995166243024093,407.70913232168596,-92.9317851609257)" fill="#ff5c58"></use><use xlink:href="#bbburst-shape-10" width="47.487130178648755" opacity="0.3693248245145764" transform="matrix(0.986874907042208,0.16148658721526427,-0.16148658721526427,0.986874907042208,190.9358792872556,135.32297977116525)" fill="none" stroke="#00a19d" filter="url(#bbburst-blur-2)"></use><use xlink:href="#bbburst-shape-1" width="17.676087206188495" opacity="0.709268562378861" transform="matrix(0.7632762392146233,0.6460722735502439,-0.6460722735502439,0.7632762392146233,680.7833476581184,216.54521157010305)" fill="#00a19d" filter="url(#bbburst-blur-1)"></use><use xlink:href="#bbburst-shape-6" width="42.8327466252324" opacity="0.11257910931515314" transform="matrix(1.2478787777939297,0.07279118031415428,-0.07279118031415428,1.2478787777939297,47.246261179954175,81.89320948674612)" fill="#2c2891" filter="url(#bbburst-blur-3)"></use><use xlink:href="#bbburst-shape-10" width="24.81351191464423" opacity="0.4118627851640847" transform="matrix(0.9985466287700164,-0.05389462099351918,0.05389462099351918,0.9985466287700164,206.6418389599693,212.51709566219074)" fill="none" stroke="#00a19d" filter="url(#bbburst-blur-2)"></use><use xlink:href="#bbburst-shape-8" width="13.178393330777991" opacity="0.9097220900955079" transform="matrix(0.8609643814990559,-0.5086652472795328,0.5086652472795328,0.8609643814990559,221.57005820550222,32.37009889157247)" fill="none" stroke="#00a19d"></use><use xlink:href="#bbburst-shape-4" width="28.658243718197507" opacity="0.04505229884429851" transform="matrix(1.4115100206227336,1.034475452430656,-1.034475452430656,1.4115100206227336,554.688835875083,-536.6244336328107)" fill="#2c2891" filter="url(#bbburst-blur-4)"></use><use xlink:href="#bbburst-shape-4" width="31.164061478104315" opacity="0.20825268746214942" transform="matrix(1.2175396432380898,0.2830145175493031,-0.2830145175493031,1.2175396432380898,492.7487537169131,264.89185532111685)" fill="#00a19d" filter="url(#bbburst-blur-3)"></use><use xlink:href="#bbburst-shape-10" width="51.851766854948025" opacity="0.19754047761578541" transform="matrix(0.99248567500544,0.759915906471891,-0.759915906471891,0.99248567500544,405.2239464679176,219.65761120690138)" fill="none" stroke="#2c2891" filter="url(#bbburst-blur-3)"></use><use xlink:href="#bbburst-shape-4" width="30.221188063156564" opacity="0.06257289776849706" transform="matrix(1.4663488386176857,0.9551550049518478,-0.9551550049518478,1.4663488386176857,1114.5793236067882,-429.2698625769894)" fill="#00a19d" filter="url(#bbburst-blur-4)"></use><use xlink:href="#bbburst-shape-4" width="30.959639426110304" opacity="0.4973400308311233" transform="matrix(0.9345693293846102,0.3557810683181441,-0.3557810683181441,0.9345693293846102,531.8258410741862,-205.47068592399992)" fill="#ffa6d5" filter="url(#bbburst-blur-2)"></use><use xlink:href="#bbburst-shape-4" width="22.7560293402923" opacity="0.7095656385961153" transform="matrix(0.9860077391273532,-0.16669954523322933,0.16669954523322933,0.9860077391273532,192.86584305761664,26.971557347528176)" fill="#ffa6d5" filter="url(#bbburst-blur-1)"></use><use xlink:href="#bbburst-shape-8" width="22.655959856733958" opacity="0.7104935784815245" transform="matrix(0.7407529228539033,0.671777572774947,-0.671777572774947,0.7407529228539033,560.8322244961729,11.97856181228434)" fill="none" stroke="#00a19d" filter="url(#bbburst-blur-1)"></use><use xlink:href="#bbburst-shape-6" width="18.168405583785887" opacity="0.775738115509954" transform="matrix(0.7916505212485322,-0.610974182929956,0.610974182929956,0.7916505212485322,51.09277422958769,62.206312017100515)" fill="#00a19d" filter="url(#bbburst-blur-1)"></use><use xlink:href="#bbburst-shape-6" width="34.845021521863714" opacity="0.41073272628006474" transform="matrix(0.9999604958100952,-0.008888578020620007,0.008888578020620007,0.9999604958100952,412.28295025566126,263.2471426977398)" fill="#2c2891" filter="url(#bbburst-blur-2)"></use><use xlink:href="#bbburst-shape-1" width="28.315353276813635" opacity="0.3423361863951142" transform="matrix(0.8326296289394807,-0.5538302095517206,0.5538302095517206,0.8326296289394807,135.2712652661815,-219.4556849105354)" fill="#ff5c58" filter="url(#bbburst-blur-2)"></use><use xlink:href="#bbburst-shape-4" width="13.545410430102779" opacity="0.8712860088305439" transform="matrix(0.9904024192478775,-0.13821377625964598,0.13821377625964598,0.9904024192478775,297.9871827042908,46.658205278102)" fill="#ffa6d5"></use><use xlink:href="#bbburst-shape-4" width="17.450725991802805" opacity="0.8278630891329307" transform="matrix(0.8692807102975267,-0.49431877033411076,0.49431877033411076,0.8692807102975267,262.2375122856304,18.68861873210369)" fill="#ffbd9b"></use><use xlink:href="#bbburst-shape-6" width="25.693633844471105" opacity="0.6938286089485519" transform="matrix(0.7614524691666185,0.6482207472767745,-0.6482207472767745,0.7614524691666185,676.428398994239,-48.02945382152376)" fill="#ffbd9b" filter="url(#bbburst-blur-1)"></use><use xlink:href="#bbburst-shape-1" width="20.31715521787217" opacity="0.6855142520544395" transform="matrix(0.9933979036092185,0.11471968054701757,-0.11471968054701757,0.9933979036092185,353.97443876189743,116.97084094846724)" fill="#ffa6d5" filter="url(#bbburst-blur-1)"></use><use xlink:href="#bbburst-shape-6" width="27.95485596292192" opacity="0.13463513588584297" transform="matrix(1.2338777612138143,0.2001141433831838,-0.2001141433831838,1.2338777612138143,821.841362626238,54.42383288897162)" fill="#2c2891" filter="url(#bbburst-blur-3)"></use><use xlink:href="#bbburst-shape-4" width="39.48541878979746" opacity="0.2923608935989992" transform="matrix(1.0449829580762675,-0.685937764910326,0.685937764910326,1.0449829580762675,258.5370107244504,-283.40197254696204)" fill="#ffa6d5" filter="url(#bbburst-blur-3)"></use><use xlink:href="#bbburst-shape-6" width="21.701561037921778" opacity="0.7445702582389901" transform="matrix(0.9996784656812807,0.025356759515374375,-0.025356759515374375,0.9996784656812807,465.80915445367623,93.59751738307875)" fill="#2c2891" filter="url(#bbburst-blur-1)"></use><use xlink:href="#bbburst-shape-6" width="16.792876225370776" opacity="0.7191693854990264" transform="matrix(0.9302439969341229,-0.3669415568834192,0.3669415568834192,0.9302439969341229,354.1954214536538,-33.333218335850574)" fill="#ffbd9b" filter="url(#bbburst-blur-1)"></use><use xlink:href="#bbburst-shape-10" width="30.248192790748355" opacity="0.17339797462380513" transform="matrix(1.1698681615359703,0.44035041117779034,-0.44035041117779034,1.1698681615359703,189.892925874987,-124.90907270561229)" fill="none" stroke="#ff5c58" filter="url(#bbburst-blur-3)"></use><use xlink:href="#bbburst-shape-8" width="39.25072343407885" opacity="0.17427913432703246" transform="matrix(1.007020263264464,-0.7405472229201657,0.7405472229201657,1.007020263264464,-179.29291269108373,-250.4480184749088)" fill="none" stroke="#00a19d" filter="url(#bbburst-blur-3)"></use><use xlink:href="#bbburst-shape-8" width="27.0728675487818" opacity="0.5979354652170416" transform="matrix(0.9901539569268157,-0.1399826474323496,0.1399826474323496,0.9901539569268157,197.16845214044588,-116.35645759883084)" fill="none" stroke="#00a19d" filter="url(#bbburst-blur-1)"></use><use xlink:href="#bbburst-shape-4" width="19.537440002409685" opacity="0.7004703673777098" transform="matrix(0.9954742263430071,0.0950319140436075,-0.0950319140436075,0.9954742263430071,557.6470686471541,38.76458249450684)" fill="#ffbd9b" filter="url(#bbburst-blur-1)"></use><use xlink:href="#bbburst-shape-8" width="26.32335659964648" opacity="0.35660359990090384" transform="matrix(0.8339990053809099,-0.5517659458716649,0.5517659458716649,0.8339990053809099,356.4586310232871,293.72921460392905)" fill="none" stroke="#2c2891" filter="url(#bbburst-blur-2)"></use><use xlink:href="#bbburst-shape-4" width="16.739108954152712" opacity="0.7815561876294299" transform="matrix(0.7499285732485782,-0.6615188092755578,0.6615188092755578,0.7499285732485782,213.68527488626825,155.70198263819344)" fill="#ffa6d5"></use><use xlink:href="#bbburst-shape-4" width="32.97857024039084" opacity="0.10847404016640261" transform="matrix(1.7458239648517844,-0.12082501292859671,0.12082501292859671,1.7458239648517844,647.7625177775957,-60.900043922415875)" fill="#00a19d" filter="url(#bbburst-blur-4)"></use><use xlink:href="#bbburst-shape-6" width="24.439219792467075" opacity="0.6536279268423995" transform="matrix(0.9815933227778304,-0.1909831109757563,0.1909831109757563,0.9815933227778304,406.1427080994223,-114.2332479119882)" fill="#2c2891" filter="url(#bbburst-blur-1)"></use><use xlink:href="#bbburst-shape-6" width="34.657057549477095" opacity="0.5305862150680732" transform="matrix(0.7788054406157421,0.6272655623157706,-0.6272655623157706,0.7788054406157421,847.554225917826,56.15361569963011)" fill="#ffa6d5" filter="url(#bbburst-blur-2)"></use><use xlink:href="#bbburst-shape-10" width="12.096059248164853" opacity="0.8524858452141334" transform="matrix(0.8180986118312173,-0.5750779610799175,0.5750779610799175,0.8180986118312173,195.09233898313892,17.0593040655275)" fill="none" stroke="#ffa6d5"></use><use xlink:href="#bbburst-shape-10" width="16.0842741086475" opacity="0.7981666670524786" transform="matrix(0.9597892356033998,-0.28072161160096215,0.28072161160096215,0.9597892356033998,217.41770336783924,-47.48790424559871)" fill="none" stroke="#ffa6d5"></use><use xlink:href="#bbburst-shape-6" width="13.137725074286525" opacity="0.8619594797758585" transform="matrix(0.9128096614858449,-0.4083852616073422,0.4083852616073422,0.9128096614858449,174.7587388970009,10.450614001564134)" fill="#ffbd9b"></use><use xlink:href="#bbburst-shape-1" width="38.940557795347885" opacity="-0.08040456572555343" transform="matrix(1.6915616000326932,-0.4484633243586762,0.4484633243586762,1.6915616000326932,538.1162272265308,69.21249392083143)" fill="#ffa6d5" filter="url(#bbburst-blur-4)"></use><use xlink:href="#bbburst-shape-8" width="36.05240199668944" opacity="0.43482689893903703" transform="matrix(0.7983578433456732,0.6021833225592067,-0.6021833225592067,0.7983578433456732,874.0607829122554,128.00324894677806)" fill="none" stroke="#00a19d" filter="url(#bbburst-blur-2)"></use><use xlink:href="#bbburst-shape-10" width="46.36514640043367" opacity="0.03928292445866843" transform="matrix(1.6053776175854306,0.696607999491627,-0.696607999491627,1.6053776175854306,390.7482068771273,93.92603737150398)" fill="none" stroke="#00a19d" filter="url(#bbburst-blur-4)"></use><use xlink:href="#bbburst-shape-10" width="23.996583580300342" opacity="0.4305663292647398" transform="matrix(0.9075525102601946,-0.4199386158957275,0.4199386158957275,0.9075525102601946,-25.035931476993,-29.12471047372577)" fill="none" stroke="#2c2891" filter="url(#bbburst-blur-2)"></use><use xlink:href="#bbburst-shape-6" width="34.91949344135992" opacity="0.467394056232982" transform="matrix(0.9885839009417566,-0.15067140006908789,0.15067140006908789,0.9885839009417566,240.74776696214093,-218.1118091231459)" fill="#00a19d" filter="url(#bbburst-blur-2)"></use><use xlink:href="#bbburst-shape-6" width="26.465419762369" opacity="0.2871125395721871" transform="matrix(1.2460202912167664,0.09966661364812486,-0.09966661364812486,1.2460202912167664,112.03047835138803,-177.02278159871094)" fill="#2c2891" filter="url(#bbburst-blur-3)"></use><use xlink:href="#bbburst-shape-8" width="31.664799416456553" opacity="0.5784991658457288" transform="matrix(0.9279832730393969,0.37262185249806284,-0.37262185249806284,0.9279832730393969,564.6995036057818,210.1398084080655)" fill="none" stroke="#ffbd9b" filter="url(#bbburst-blur-1)"></use><use xlink:href="#bbburst-shape-10" width="41.3126889545625" opacity="0.20585832621730304" transform="matrix(1.2465733644406753,0.09249241626779446,-0.09249241626779446,1.2465733644406753,742.3545750646595,-234.99001445977677)" fill="none" stroke="#2c2891" filter="url(#bbburst-blur-3)"></use><use xlink:href="#bbburst-shape-4" width="36.11334922778672" opacity="0.39177824681867957" transform="matrix(0.8334408726470555,-0.5526086425322306,0.5526086425322306,0.8334408726470555,235.61155784259321,-187.5159247026736)" fill="#2c2891" filter="url(#bbburst-blur-2)"></use><use xlink:href="#bbburst-shape-4" width="22.988334943908196" opacity="0.5740171826369476" transform="matrix(0.9983309642875986,-0.05775193282127996,0.05775193282127996,0.9983309642875986,545.9775167621392,65.74844544907518)" fill="#00a19d" filter="url(#bbburst-blur-1)"></use><use xlink:href="#bbburst-shape-4" width="30.146704580743624" opacity="0.3111350190803187" transform="matrix(1.0964097475246772,0.6003213019149609,-0.6003213019149609,1.0964097475246772,731.4220839750873,243.04515266302928)" fill="#00a19d" filter="url(#bbburst-blur-3)"></use><use xlink:href="#bbburst-shape-4" width="24.848360515640604" opacity="0.6022554008787377" transform="matrix(0.7364253124340052,-0.6765188535484269,0.6765188535484269,0.7364253124340052,32.76536412918779,-42.29136154979409)" fill="#00a19d" filter="url(#bbburst-blur-1)"></use><use xlink:href="#bbburst-shape-6" width="30.326818014462475" opacity="0.48360511698592923" transform="matrix(0.9936610509604321,0.11241759561656524,-0.11241759561656524,0.9936610509604321,539.3963167679382,205.79442205316656)" fill="#ffa6d5" filter="url(#bbburst-blur-2)"></use><use xlink:href="#bbburst-shape-6" width="34.2397169316582" opacity="0.09559758838562615" transform="matrix(1.6819841827604178,0.4831451220324691,-0.4831451220324691,1.6819841827604178,207.71082625236824,-476.92611122821154)" fill="#ffa6d5" filter="url(#bbburst-blur-4)"></use><use xlink:href="#bbburst-shape-8" width="37.75908679195481" opacity="-0.0783700451151832" transform="matrix(1.6759195421868327,0.5037794042200191,-0.5037794042200191,1.6759195421868327,908.1978755049789,-627.7562597094973)" fill="none" stroke="#ff5c58" filter="url(#bbburst-blur-4)"></use><use xlink:href="#bbburst-shape-10" width="39.16437359697654" opacity="0.08693688047449466" transform="matrix(1.5582877144940726,0.7963914859268901,-0.7963914859268901,1.5582877144940726,885.6788097557483,-599.1333247589207)" fill="none" stroke="#2c2891" filter="url(#bbburst-blur-4)"></use><use xlink:href="#bbburst-shape-4" width="19.51510358652061" opacity="0.8348173130738022" transform="matrix(0.9760360402287508,-0.21760893404127613,0.21760893404127613,0.9760360402287508,230.2748453101649,24.865651331909817)" fill="#ffa6d5"></use><use xlink:href="#bbburst-shape-10" width="25.235623911058088" opacity="0.5546140568802067" transform="matrix(0.8072611998866561,-0.5901943367718435,0.5901943367718435,0.8072611998866561,65.49310563314856,264.49460462727717)" fill="none" stroke="#2c2891" filter="url(#bbburst-blur-2)"></use><use xlink:href="#bbburst-shape-1" width="44.179357879858415" opacity="0.1556591419229959" transform="matrix(0.8983448697332413,-0.8691815086758149,0.8691815086758149,0.8983448697332413,295.1823892814821,-214.64052422479676)" fill="#ffa6d5" filter="url(#bbburst-blur-3)"></use><use xlink:href="#bbburst-shape-8" width="39.84110605414736" opacity="0.23174777848110506" transform="matrix(1.2268209664973078,0.23960449946236792,-0.23960449946236792,1.2268209664973078,811.2724669658767,-32.204773699533234)" fill="none" stroke="#ffbd9b" filter="url(#bbburst-blur-3)"></use><use xlink:href="#bbburst-shape-6" width="23.557734964494838" opacity="0.4373502435536166" transform="matrix(0.8523881240021083,0.5229096346981632,-0.5229096346981632,0.8523881240021083,422.125409180897,-128.1613653193285)" fill="#ffbd9b" filter="url(#bbburst-blur-2)"></use><use xlink:href="#bbburst-shape-6" width="31.197292819392345" opacity="0.5855831701925318" transform="matrix(0.8610279137269247,-0.5085576975949333,0.5085576975949333,0.8610279137269247,344.19969685989713,-30.496103253045987)" fill="#ff5c58" filter="url(#bbburst-blur-1)"></use><use xlink:href="#bbburst-shape-4" width="18.68528674288522" opacity="0.7948663294868822" transform="matrix(0.8340128748859944,-0.5517449814220322,0.5517449814220322,0.8340128748859944,175.1852367911947,163.80111357945856)" fill="#00a19d"></use><use xlink:href="#bbburst-shape-6" width="40.817826574782785" opacity="0.4272619129375804" transform="matrix(0.8480796040999585,0.5298688376472593,-0.5298688376472593,0.8480796040999585,829.5033379869129,-56.18013029327301)" fill="#2c2891" filter="url(#bbburst-blur-2)"></use><use xlink:href="#bbburst-shape-4" width="22.280046513615623" opacity="0.657306665944412" transform="matrix(0.9188190919238582,-0.3946789534751208,0.3946789534751208,0.9188190919238582,100.6674205064904,117.87632806770239)" fill="#2c2891" filter="url(#bbburst-blur-1)"></use><use xlink:href="#bbburst-shape-1" width="42.87805768738012" opacity="0.2077524029457556" transform="matrix(1.2498639412980612,-0.018442566059987748,0.018442566059987748,1.2498639412980612,15.612209537486166,-32.778616579806965)" fill="#00a19d" filter="url(#bbburst-blur-3)"></use><use xlink:href="#bbburst-shape-6" width="48.75091883952853" opacity="-0.07071634464942633" transform="matrix(1.408071606562649,-1.0391507834727745,1.0391507834727745,1.408071606562649,-403.2127225673978,189.79218876770574)" fill="#ffa6d5" filter="url(#bbburst-blur-4)"></use><use xlink:href="#bbburst-shape-8" width="27.949997833395635" opacity="0.1782306085553772" transform="matrix(1.1977544271008103,0.35760918942388786,-0.35760918942388786,1.1977544271008103,468.2421052029924,-449.3088092904587)" fill="none" stroke="#2c2891" filter="url(#bbburst-blur-3)"></use><use xlink:href="#bbburst-shape-8" width="26.309848360244608" opacity="0.6613842412000621" transform="matrix(0.9679814608676439,-0.25102169511128297,0.25102169511128297,0.9679814608676439,141.00517847884709,-28.002120243942045)" fill="none" stroke="#ff5c58" filter="url(#bbburst-blur-1)"></use><use xlink:href="#bbburst-shape-6" width="25.78082488336459" opacity="0.5175526744330081" transform="matrix(0.9997806218633217,0.020945360980169653,-0.020945360980169653,0.9997806218633217,562.4385434376791,138.6032972593004)" fill="#ff5c58" filter="url(#bbburst-blur-2)"></use><use xlink:href="#bbburst-shape-8" width="18.918693227153533" opacity="0.6236263192068696" transform="matrix(0.9947501205815261,-0.10233375593145824,0.10233375593145824,0.9947501205815261,328.2849987216787,-164.9463765321135)" fill="none" stroke="#00a19d" filter="url(#bbburst-blur-1)"></use><use xlink:href="#bbburst-shape-1" width="31.65740287500918" opacity="0.5181687417226857" transform="matrix(0.7414418271855633,0.6710171509728595,-0.6710171509728595,0.7414418271855633,466.33916715947316,-11.076253452071569)" fill="#2c2891" filter="url(#bbburst-blur-2)"></use><use xlink:href="#bbburst-shape-6" width="11.144174531228407" opacity="0.9467639551910649" transform="matrix(0.9455304567000731,0.325533647189582,-0.325533647189582,0.9455304567000731,514.7279447872221,41.642339184363095)" fill="#2c2891"></use><use xlink:href="#bbburst-shape-10" width="41.56652469401863" opacity="0.30586322868853366" transform="matrix(1.2408000137005872,-0.15137808956590415,0.15137808956590415,1.2408000137005872,48.1206458784974,-257.6673613331394)" fill="none" stroke="#ffa6d5" filter="url(#bbburst-blur-3)"></use><use xlink:href="#bbburst-shape-10" width="10.908760305454456" opacity="0.8315825785636827" transform="matrix(0.9729909706029767,-0.23084317430904774,0.23084317430904774,0.9729909706029767,377.42626383106085,22.46461365471066)" fill="none" stroke="#ff5c58"></use><use xlink:href="#bbburst-shape-6" width="19.500141345489606" opacity="0.7924931800369347" transform="matrix(0.7956622525744667,0.605740521864045,-0.605740521864045,0.7956622525744667,597.3707016634535,161.49159258170698)" fill="#00a19d"></use><use xlink:href="#bbburst-shape-1" width="11.081866098894182" opacity="0.9031186291522554" transform="matrix(0.9049298690361908,0.42556072671963363,-0.42556072671963363,0.9049298690361908,608.7755457771258,34.20343017492087)" fill="#00a19d"></use><use xlink:href="#bbburst-shape-4" width="13.60163653146802" opacity="0.8827767779032686" transform="matrix(0.8613710409355375,0.5079763083428483,-0.5079763083428483,0.8613710409355375,597.4226405844704,104.75792307335661)" fill="#2c2891"></use></svg>