<svg xmlns="http://www.w3.org/2000/svg" version="1.1" xmlns:xlink="http://www.w3.org/1999/xlink" xmlns:svgjs="http://svgjs.dev/svgjs" viewBox="0 0 800 800" opacity="1"><defs><symbol id="bbburst-shape-1" viewBox="0 0 194 167"><path d="m97 0 96.129 166.5H.871L97 0Z"></path></symbol><symbol id="bbburst-shape-4" viewBox="0 0 149 143"><path d="M71.647 2.781c.898-2.764 4.808-2.764 5.706 0l15.445 47.534a3 3 0 0 0 2.853 2.073h49.98c2.906 0 4.115 3.719 1.764 5.427L106.96 87.193a2.999 2.999 0 0 0-1.09 3.354l15.445 47.534c.898 2.764-2.266 5.062-4.617 3.354l-40.435-29.378a3 3 0 0 0-3.526 0l-40.435 29.378c-2.351 1.708-5.515-.59-4.617-3.354L43.13 90.547a3 3 0 0 0-1.09-3.354L1.605 57.815c-2.35-1.708-1.142-5.427 1.764-5.427h49.98a3 3 0 0 0 2.853-2.073L71.647 2.781Z"></path></symbol><symbol id="bbburst-shape-6" viewBox="0 0 133 116"><path d="M59.7487 10.2513c-13.6683-13.66839-35.8291-13.66839-49.4974 0-13.66839 13.6683-13.66839 35.8291 0 49.4974l49.4974-49.4974ZM66.5 66.5 41.7513 91.2487 66.5 115.997l24.7487-24.7483L66.5 66.5Zm56.249-6.7513c13.668-13.6683 13.668-35.8291 0-49.4974-13.669-13.66839-35.8294-13.66839-49.4977 0l49.4977 49.4974Zm-112.4977 0 31.5 31.5 49.4974-49.4974-31.5-31.5-49.4974 49.4974Zm80.9974 31.5 31.5003-31.5-49.4977-49.4974-31.5 31.5 49.4974 49.4974Z"></path></symbol><symbol id="bbburst-shape-8" viewBox="0 0 87 168"><path d="m12 12 31.2546 18.0749c16.4102 9.4902 20.014 31.6325 7.4603 45.8369L36.3296 92.1884c-12.5684 14.2206-8.9394 36.3916 7.5068 45.8636L75 156" stroke-width="14" stroke-linecap="round" stroke-linejoin="round"></path></symbol><symbol id="bbburst-shape-10" viewBox="0 0 145 145"><circle cx="72.5" cy="72.5" r="61.5" fill="none" stroke-width="22"></circle></symbol></defs><use xlink:href="#bbburst-shape-4" width="31.646522193528796" opacity="0.45548098246108726" transform="matrix(0.8332822940573108,-0.5528477352857525,0.5528477352857525,0.8332822940573108,282.8453066997376,-139.75363353398973)" fill=" #FFFFFF"></use><use xlink:href="#bbburst-shape-8" width="17.17508429107736" opacity="0.7498302841414501" transform="matrix(0.9992815569756691,-0.03789947081797548,0.03789947081797548,0.9992815569756691,375.4159599130933,113.18605757531373)" fill="none" stroke=" #FFFFFF"></use><use xlink:href="#bbburst-shape-10" width="27.930627398222207" opacity="0.7408682815791671" transform="matrix(0.9914880556350639,-0.13019767867746523,0.13019767867746523,0.9914880556350639,330.48348766882725,-111.33093979014023)" fill="none" stroke=" #FFFFFF"></use><use xlink:href="#bbburst-shape-6" width="17.16704015346807" opacity="0.8541584628652004" transform="matrix(0.9698016177402825,0.24389510497000752,-0.24389510497000752,0.9698016177402825,553.2167610902384,24.59063459861659)" fill=" #FFFFFF"></use><use xlink:href="#bbburst-shape-8" width="34.47495333708678" opacity="-0.08848969829823505" transform="matrix(0.7236528814138836,0.6901641161501978,-0.6901641161501978,0.7236528814138836,1010.1885142386296,444.75574458860154)" fill="none" stroke=" #FFFFFF"></use><use xlink:href="#bbburst-shape-6" width="21.105675342972734" opacity="0.6847377673398718" transform="matrix(0.8995214044865523,-0.4368766906926259,0.4368766906926259,0.8995214044865523,296.1932684945624,161.66306469901684)" fill=" #FFFFFF"></use><use xlink:href="#bbburst-shape-8" width="32.354640642051315" opacity="0.3790711955525491" transform="matrix(0.9520993049511174,-0.30578900161974304,0.30578900161974304,0.9520993049511174,541.6999481961604,24.20741800529055)" fill="none" stroke=" #FFFFFF"></use><use xlink:href="#bbburst-shape-6" width="22.111878919182136" opacity="0.7573029689054007" transform="matrix(0.877755328127624,0.4791091566058482,-0.4791091566058482,0.877755328127624,516.7453318010062,131.22183187074262)" fill=" #FFFFFF"></use><use xlink:href="#bbburst-shape-10" width="41.2772628594274" opacity="0.2261971707217294" transform="matrix(0.9681042443362725,-0.2505477441488841,0.2505477441488841,0.9681042443362725,262.0630449749067,-329.8299461718186)" fill="none" stroke=" #FFFFFF"></use><use xlink:href="#bbburst-shape-4" width="23.173865070906757" opacity="0.6883173574252198" transform="matrix(0.8130835054995147,0.5821470716963375,-0.5821470716963375,0.8130835054995147,736.5659650318612,150.9316221361405)" fill=" #FFFFFF"></use><use xlink:href="#bbburst-shape-1" width="18.13265125138352" opacity="0.6453396057760683" transform="matrix(0.892545989782085,-0.45095637940261835,0.45095637940261835,0.892545989782085,247.79536637616707,202.51461868555737)" fill=" #FFFFFF"></use><use xlink:href="#bbburst-shape-4" width="18.21090527312225" opacity="0.7413676012697381" transform="matrix(0.9473726121294006,0.3201329939058396,-0.3201329939058396,0.9473726121294006,405.27750862175066,40.87807273560287)" fill=" #FFFFFF"></use><use xlink:href="#bbburst-shape-10" width="22.142066217466127" opacity="0.5470812021530437" transform="matrix(0.7238047389036001,-0.6900048550124059,0.6900048550124059,0.7238047389036001,194.2023205858069,306.3243621862667)" fill="none" stroke=" #FFFFFF"></use><use xlink:href="#bbburst-shape-4" width="34.846118601781164" opacity="0.1275643174037494" transform="matrix(0.9515536368763444,-0.30748280626305297,0.30748280626305297,0.9515536368763444,622.5315144406388,-126.95633828501695)" fill=" #FFFFFF"></use><use xlink:href="#bbburst-shape-10" width="12.667724774208457" opacity="0.9133372593101529" transform="matrix(0.9378222887763956,-0.3471157655224015,0.3471157655224015,0.9378222887763956,216.78162217115465,33.69084698316345)" fill="none" stroke=" #FFFFFF"></use><use xlink:href="#bbburst-shape-6" width="18.401837384893042" opacity="0.7468698418412615" transform="matrix(0.9639754067811236,-0.26599138166708974,0.26599138166708974,0.9639754067811236,323.32605273419745,124.02930930474236)" fill=" #FFFFFF"></use><use xlink:href="#bbburst-shape-10" width="36.71310685913506" opacity="0.22345335019476986" transform="matrix(0.9700488886331937,0.2429097644424893,-0.2429097644424893,0.9700488886331937,822.115467475593,-60.517066940866414)" fill="none" stroke=" #FFFFFF"></use><use xlink:href="#bbburst-shape-4" width="47.96073439200548" opacity="-0.0733678535316582" transform="matrix(0.9642179540416784,-0.2651108015598001,0.2651108015598001,0.9642179540416784,-69.31021302213887,363.63868231095813)" fill=" #FFFFFF"></use><use xlink:href="#bbburst-shape-6" width="34.3558922776758" opacity="0.2763899676602858" transform="matrix(0.9719767234368076,-0.2350771130864245,0.2350771130864245,0.9719767234368076,482.33569571852195,277.46528223129275)" fill=" #FFFFFF"></use><use xlink:href="#bbburst-shape-1" width="27.880727510182453" opacity="0.5612813405346797" transform="matrix(0.9900456399074241,0.1407466905483007,-0.1407466905483007,0.9900456399074241,576.2017156253194,147.30578884234632)" fill=" #FFFFFF"></use><use xlink:href="#bbburst-shape-1" width="15.239456823717571" opacity="0.8751304392679579" transform="matrix(0.827378325529663,0.561645000372772,-0.561645000372772,0.827378325529663,572.9141205533072,31.71388750971289)" fill=" #FFFFFF"></use><use xlink:href="#bbburst-shape-1" width="18.50177961415955" opacity="0.7735862602191819" transform="matrix(0.7792335849649964,0.6267336117223965,-0.6267336117223965,0.7792335849649964,725.6346637958388,22.279948325926966)" fill=" #FFFFFF"></use><use xlink:href="#bbburst-shape-6" width="46.81252802690779" opacity="0.12598479424389997" transform="matrix(0.871017831730374,0.49125139878449003,-0.49125139878449003,0.871017831730374,773.011615899856,-300.3770953003033)" fill=" #FFFFFF"></use><use xlink:href="#bbburst-shape-6" width="20.652536678846673" opacity="0.7971739618744036" transform="matrix(0.8758360689015658,0.48260872392762616,-0.48260872392762616,0.8758360689015658,655.265273955489,101.70577323033928)" fill=" #FFFFFF"></use><use xlink:href="#bbburst-shape-4" width="20.137904125376608" opacity="0.6544791738480231" transform="matrix(0.7305101160367402,0.6829018746262074,-0.6829018746262074,0.7305101160367402,821.1277483063066,107.74757525701017)" fill=" #FFFFFF"></use><use xlink:href="#bbburst-shape-10" width="19.283221011569225" opacity="0.7014400149070296" transform="matrix(0.9551086997752738,-0.29625558494918847,0.29625558494918847,0.9551086997752738,142.34630816902003,-13.324432915361172)" fill="none" stroke=" #FFFFFF"></use><use xlink:href="#bbburst-shape-6" width="27.93588427528734" opacity="0.40805060378958213" transform="matrix(0.8716370957132213,0.49015178605878873,-0.49015178605878873,0.8716370957132213,348.7014753087618,169.5800696220246)" fill=" #FFFFFF"></use><use xlink:href="#bbburst-shape-6" width="38.77521545180605" opacity="0.3667700758762301" transform="matrix(0.805930800707299,-0.5920097503177559,0.5920097503177559,0.805930800707299,419.308404957178,174.8811020096835)" fill=" #FFFFFF"></use><use xlink:href="#bbburst-shape-4" width="29.997652430652273" opacity="0.5176858624523313" transform="matrix(0.9760753852182856,-0.21743238574548948,0.21743238574548948,0.9760753852182856,510.0363775616113,60.96167601893535)" fill=" #FFFFFF"></use><use xlink:href="#bbburst-shape-6" width="29.45252461697672" opacity="0.49907676185017846" transform="matrix(0.9858497809316197,0.1676311708396669,-0.1676311708396669,0.9858497809316197,309.8897014080801,-171.34922254386305)" fill=" #FFFFFF"></use><use xlink:href="#bbburst-shape-8" width="41.6521585564058" opacity="0.024907182312427945" transform="matrix(0.9999691963891233,0.007848966358119203,-0.007848966358119203,0.9999691963891233,738.8195930591489,-255.96761875386787)" fill="none" stroke=" #FFFFFF"></use><use xlink:href="#bbburst-shape-10" width="20.808370235474538" opacity="0.6198342743553322" transform="matrix(0.9295035929599158,-0.3688130565403118,0.3688130565403118,0.9295035929599158,353.58169561023067,-98.32841763514921)" fill="none" stroke=" #FFFFFF"></use><use xlink:href="#bbburst-shape-6" width="30.758235483583704" opacity="0.48154919768035975" transform="matrix(0.9999947552370831,0.003238749500371333,-0.003238749500371333,0.9999947552370831,405.5156323324598,-232.52552723166252)" fill=" #FFFFFF"></use><use xlink:href="#bbburst-shape-4" width="38.010270882704454" opacity="-0.06852898614296543" transform="matrix(0.7617566605476397,0.6478632495452324,-0.6478632495452324,0.7617566605476397,298.99072236024045,-251.24643604429048)" fill=" #FFFFFF"></use><use xlink:href="#bbburst-shape-6" width="39.49652558165663" opacity="0.2811161705165226" transform="matrix(0.7633437972990866,0.6459924512910432,-0.6459924512910432,0.7633437972990866,921.7188944035811,-82.85465462773689)" fill=" #FFFFFF"></use><use xlink:href="#bbburst-shape-6" width="32.34529738710664" opacity="0.4153095780586773" transform="matrix(0.9416605566945385,0.33656410379856583,-0.33656410379856583,0.9416605566945385,353.73099092367664,222.29997726043842)" fill=" #FFFFFF"></use><use xlink:href="#bbburst-shape-6" width="29.645900043537406" opacity="0.17039580295549384" transform="matrix(0.8518638574632631,0.5237632751041347,-0.5237632751041347,0.8518638574632631,953.7523421724015,161.0808743810403)" fill=" #FFFFFF"></use><use xlink:href="#bbburst-shape-10" width="32.805664244648064" opacity="-0.0764485839185709" transform="matrix(0.9081013550403747,0.4187504375804703,-0.4187504375804703,0.9081013550403747,881.9077463182998,-325.36222985041735)" fill="none" stroke=" #FFFFFF"></use><use xlink:href="#bbburst-shape-10" width="32.976061180061436" opacity="0.5577735644779986" transform="matrix(0.9858112413189292,0.16785766735312366,-0.16785766735312366,0.9858112413189292,293.30533112856745,124.43626702734798)" fill="none" stroke=" #FFFFFF"></use><use xlink:href="#bbburst-shape-8" width="36.73966570486586" opacity="0.0974781780071764" transform="matrix(0.7746033721617649,-0.6324473225776375,0.6324473225776375,0.7746033721617649,-221.74998332249675,-96.32858651688673)" fill="none" stroke=" #FFFFFF"></use><use xlink:href="#bbburst-shape-10" width="39.64970125891706" opacity="0.39172926995783264" transform="matrix(0.9846130831542071,-0.17474860938378425,0.17474860938378425,0.9846130831542071,37.49956945275001,-9.097405723587656)" fill="none" stroke=" #FFFFFF"></use><use xlink:href="#bbburst-shape-6" width="38.70193133464187" opacity="0.1312631255701847" transform="matrix(0.9798494480496297,0.199737475594431,-0.199737475594431,0.9798494480496297,744.6183710438081,273.1762544323762)" fill=" #FFFFFF"></use><use xlink:href="#bbburst-shape-10" width="31.705403044416883" opacity="0.47222974329424217" transform="matrix(0.9344640544068862,0.35605748274884513,-0.35605748274884513,0.9344640544068862,556.5635461764259,256.2949342015539)" fill="none" stroke=" #FFFFFF"></use><use xlink:href="#bbburst-shape-4" width="41.43150027704761" opacity="0.07355047102443035" transform="matrix(0.9493562325361731,0.31420175643163367,-0.31420175643163367,0.9493562325361731,269.8397156454712,-329.77765871236784)" fill=" #FFFFFF"></use><use xlink:href="#bbburst-shape-10" width="24.165034043959263" opacity="0.5814735864758287" transform="matrix(0.9417056722954363,-0.33643784978298774,0.33643784978298774,0.9417056722954363,421.4706457906897,113.6382058064716)" fill="none" stroke=" #FFFFFF"></use><use xlink:href="#bbburst-shape-4" width="24.88787097420989" opacity="0.5391337181453768" transform="matrix(0.9992920155823163,0.03762270050689716,-0.03762270050689716,0.9992920155823163,203.46641975395053,-58.05160657051391)" fill=" #FFFFFF"></use><use xlink:href="#bbburst-shape-10" width="24.810979184618382" opacity="0.3504397213797972" transform="matrix(0.9897947827418915,0.14250013353303187,-0.14250013353303187,0.9897947827418915,426.52911563730265,294.0497676335851)" fill="none" stroke=" #FFFFFF"></use><use xlink:href="#bbburst-shape-10" width="26.122982342382016" opacity="0.42578300129046254" transform="matrix(0.9673114873770433,0.25359117963448996,-0.25359117963448996,0.9673114873770433,692.9756013013157,168.13754898055896)" fill="none" stroke=" #FFFFFF"></use><use xlink:href="#bbburst-shape-6" width="34.82408939495218" opacity="0.2661761750667849" transform="matrix(0.8115671537788997,-0.5842591504693921,0.5842591504693921,0.8115671537788997,433.28760769937566,258.7981570368567)" fill=" #FFFFFF"></use><use xlink:href="#bbburst-shape-10" width="34.567477749212934" opacity="0.2259616266803568" transform="matrix(0.7617690079320015,0.6478487312284359,-0.6478487312284359,0.7617690079320015,383.3017998979643,-144.65935528125507)" fill="none" stroke=" #FFFFFF"></use><use xlink:href="#bbburst-shape-6" width="32.29950745888712" opacity="0.32035147549722753" transform="matrix(0.9977852411203464,0.0665177615559349,-0.0665177615559349,0.9977852411203464,498.66255302939055,292.6692701695495)" fill=" #FFFFFF"></use><use xlink:href="#bbburst-shape-1" width="16.801501093895936" opacity="0.8363626533885749" transform="matrix(0.9044789744959718,-0.4265182114455549,0.4265182114455549,0.9044789744959718,205.89408569570426,113.70866780415213)" fill=" #FFFFFF"></use><use xlink:href="#bbburst-shape-10" width="30.22077103304719" opacity="0.06902939657910656" transform="matrix(0.8796463193064161,-0.4756283769190759,0.4756283769190759,0.8796463193064161,418.6793382792596,410.4694784747199)" fill="none" stroke=" #FFFFFF"></use><use xlink:href="#bbburst-shape-1" width="39.68575020981313" opacity="0.2951547421000862" transform="matrix(0.9735410375445247,0.22851224959885705,-0.22851224959885705,0.9735410375445247,344.68156970955556,296.57143006987917)" fill=" #FFFFFF"></use><use xlink:href="#bbburst-shape-8" width="43.86161900917564" opacity="0.409759542201531" transform="matrix(0.9957990568884344,-0.09156548640238035,0.09156548640238035,0.9957990568884344,274.4830709521403,-253.3168484007586)" fill="none" stroke=" #FFFFFF"></use><use xlink:href="#bbburst-shape-4" width="24.63731458026835" opacity="0.4292214564694653" transform="matrix(0.9421522971654694,0.3351850965449225,-0.3351850965449225,0.9421522971654694,655.1410106894286,238.9583112180223)" fill=" #FFFFFF"></use><use xlink:href="#bbburst-shape-10" width="27.609651758617602" opacity="0.17460264534001946" transform="matrix(0.9975701324312413,-0.06966944008039465,0.06966944008039465,0.9975701324312413,-7.193825444494422,67.7295471499935)" fill="none" stroke=" #FFFFFF"></use><use xlink:href="#bbburst-shape-10" width="27.656129718104562" opacity="0.1627001200493977" transform="matrix(0.7719078089822059,-0.6357344842245781,0.6357344842245781,0.7719078089822059,234.07675402281615,463.56199284600353)" fill="none" stroke=" #FFFFFF"></use><use xlink:href="#bbburst-shape-10" width="35.09488606747358" opacity="0.27597326757905083" transform="matrix(0.7542068356151601,0.6566369233536649,-0.6566369233536649,0.7542068356151601,390.1380762370611,284.09213488101267)" fill="none" stroke=" #FFFFFF"></use><use xlink:href="#bbburst-shape-4" width="30.857764803245672" opacity="0.19633246634462187" transform="matrix(0.9949847987207818,-0.10002624812800485,0.10002624812800485,0.9949847987207818,705.9405871585387,19.496507088561827)" fill=" #FFFFFF"></use><use xlink:href="#bbburst-shape-4" width="35.85086903409852" opacity="0.32501303933025016" transform="matrix(0.8473178929763454,0.5310860459870194,-0.5310860459870194,0.8473178929763454,430.40584805723915,-202.2515738527514)" fill=" #FFFFFF"></use><use xlink:href="#bbburst-shape-4" width="15.707140073221941" opacity="0.929729882600695" transform="matrix(0.9102069845512136,0.414153649355148,-0.414153649355148,0.9102069845512136,553.3908056805319,1.472712211555006)" fill=" #FFFFFF"></use><use xlink:href="#bbburst-shape-6" width="37.427751907574226" opacity="0.3749614597408937" transform="matrix(0.7877129124163074,0.6160425047126366,-0.6160425047126366,0.7877129124163074,381.66013037865935,-55.468359639316304)" fill=" #FFFFFF"></use><use xlink:href="#bbburst-shape-6" width="24.502176444928665" opacity="0.18670485401893044" transform="matrix(0.9752239016934512,-0.22122012016496578,0.22122012016496578,0.9752239016934512,260.317921481914,376.4933081637834)" fill=" #FFFFFF"></use><use xlink:href="#bbburst-shape-4" width="14.555346509917348" opacity="0.9827398178337626" transform="matrix(0.9884739362028618,-0.15139114058497824,0.15139114058497824,0.9884739362028618,328.0011136507443,12.226001584921107)" fill=" #FFFFFF"></use><use xlink:href="#bbburst-shape-10" width="35.112360297997164" opacity="0.17155143152942087" transform="matrix(0.7423271868440272,-0.6700375718362611,0.6700375718362611,0.7423271868440272,-7.025413555302919,-236.03902256672853)" fill="none" stroke=" #FFFFFF"></use><use xlink:href="#bbburst-shape-1" width="29.96776017854838" opacity="0.3190950540687162" transform="matrix(0.9788103455371145,0.20476891236101824,-0.20476891236101824,0.9788103455371145,171.0312308724658,83.86571343112104)" fill=" #FFFFFF"></use><use xlink:href="#bbburst-shape-1" width="19.107702167260808" opacity="0.7502317137799015" transform="matrix(0.9533453653890348,0.3018817886048243,-0.3018817886048243,0.9533453653890348,565.7237745413784,-82.7251504494455)" fill=" #FFFFFF"></use><use xlink:href="#bbburst-shape-8" width="15.875328683987023" opacity="0.7298737171173084" transform="matrix(0.9790479741044379,-0.20362972376840277,0.20362972376840277,0.9790479741044379,427.08433949628176,45.332849442804616)" fill="none" stroke=" #FFFFFF"></use><use xlink:href="#bbburst-shape-4" width="31.075495989271538" opacity="0.5411078763443458" transform="matrix(0.8906603191181028,-0.4546693259374765,0.4546693259374765,0.8906603191181028,408.7710845159246,21.895273943077882)" fill=" #FFFFFF"></use><use xlink:href="#bbburst-shape-4" width="31.283788986019793" opacity="0.594873347809999" transform="matrix(0.8327376644424512,0.5536677543608002,-0.5536677543608002,0.8327376644424512,592.3552019768575,239.86543504982006)" fill=" #FFFFFF"></use><use xlink:href="#bbburst-shape-10" width="14.000759249750654" opacity="0.943115895834763" transform="matrix(0.9597733646798511,0.2807758687122482,-0.2807758687122482,0.9597733646798511,531.1664538358505,13.041563932502356)" fill="none" stroke=" #FFFFFF"></use><use xlink:href="#bbburst-shape-10" width="20.030085429107185" opacity="0.760065423373884" transform="matrix(0.7280559307214172,-0.6855177326235777,0.6855177326235777,0.7280559307214172,31.667876172615365,51.47473039474528)" fill="none" stroke=" #FFFFFF"></use><use xlink:href="#bbburst-shape-6" width="14.465439245911252" opacity="0.8265825603065977" transform="matrix(0.8309154411329083,0.5563987146704281,-0.5563987146704281,0.8309154411329083,648.4594868416175,134.82533345543948)" fill=" #FFFFFF"></use><use xlink:href="#bbburst-shape-4" width="19.127700630957964" opacity="0.8762930678133559" transform="matrix(0.9350053700004065,0.3546335546312602,-0.3546335546312602,0.9350053700004065,580.9012053056167,-5.578691139676664)" fill=" #FFFFFF"></use><use xlink:href="#bbburst-shape-4" width="13.676798655656263" opacity="0.9007988620349751" transform="matrix(0.9998296791966673,-0.018455692820624463,0.018455692820624463,0.9998296791966673,411.28857868197275,36.84175518661152)" fill=" #FFFFFF"></use><use xlink:href="#bbburst-shape-1" width="25.73666339033835" opacity="0.6778729627701267" transform="matrix(0.9363162338510252,0.3511579562348434,-0.3511579562348434,0.9363162338510252,451.56184391908545,-101.92912478856823)" fill=" #FFFFFF"></use><use xlink:href="#bbburst-shape-6" width="40.440977681221945" opacity="0.3696949054125592" transform="matrix(0.8406300046968553,0.5416098182302135,-0.5416098182302135,0.8406300046968553,791.4926330628155,-156.11679871968687)" fill=" #FFFFFF"></use><use xlink:href="#bbburst-shape-8" width="30.223275389645515" opacity="0.5215213060149502" transform="matrix(0.8916354915720773,-0.4527539620688261,0.4527539620688261,0.8916354915720773,-2.8180503518438798,104.92190330644968)" fill="none" stroke=" #FFFFFF"></use><use xlink:href="#bbburst-shape-4" width="32.895877720285824" opacity="0.09506301573872378" transform="matrix(0.9287348204681163,-0.3707447009062379,0.3707447009062379,0.9287348204681163,53.66377870965937,398.53191590678995)" fill=" #FFFFFF"></use><use xlink:href="#bbburst-shape-10" width="37.481662842568014" opacity="0.481779936445226" transform="matrix(0.8411923600887697,0.5407359922626618,-0.5407359922626618,0.8411923600887697,527.0105641656388,274.6960455525801)" fill="none" stroke=" #FFFFFF"></use><use xlink:href="#bbburst-shape-1" width="41.93774235104753" opacity="0.1466050714982463" transform="matrix(0.8637999201892946,-0.5038349907270913,0.5038349907270913,0.8637999201892946,-68.74589511226463,357.347275324598)" fill=" #FFFFFF"></use><use xlink:href="#bbburst-shape-10" width="38.635550989878915" opacity="0.09120584402990006" transform="matrix(0.7829873204148782,0.6220376645103806,-0.6220376645103806,0.7829873204148782,280.9285436666612,281.6844367455071)" fill="none" stroke=" #FFFFFF"></use><use xlink:href="#bbburst-shape-1" width="31.759996571418235" opacity="0.5228656130695883" transform="matrix(0.9648344869671078,0.2628581609136719,-0.2628581609136719,0.9648344869671078,668.0783478868462,-109.74020488511565)" fill=" #FFFFFF"></use><use xlink:href="#bbburst-shape-10" width="21.980472926115624" opacity="0.5987149236130819" transform="matrix(0.8060894411085253,0.5917937249864562,-0.5917937249864562,0.8060894411085253,479.94457892044096,-32.5255877696153)" fill="none" stroke=" #FFFFFF"></use><use xlink:href="#bbburst-shape-8" width="20.584410250292787" opacity="0.6859863799548278" transform="matrix(0.9476454088174966,0.3193245670898496,-0.3193245670898496,0.9476454088174966,396.75737292673364,90.2731362083573)" fill="none" stroke=" #FFFFFF"></use><use xlink:href="#bbburst-shape-4" width="18.039897394969465" opacity="0.7770067179719073" transform="matrix(0.996145696900819,-0.08771402707652631,0.08771402707652631,0.996145696900819,455.42309072287765,-10.718415927488422)" fill=" #FFFFFF"></use><use xlink:href="#bbburst-shape-10" width="25.856298000244536" opacity="0.66606541463599" transform="matrix(0.9265430268728664,0.3761888081180337,-0.3761888081180337,0.9265430268728664,676.732378325266,-34.406285432958384)" fill="none" stroke=" #FFFFFF"></use><use xlink:href="#bbburst-shape-8" width="25.914440049356205" opacity="0.4149649374668266" transform="matrix(0.8717850256832791,-0.4898886291744323,0.4898886291744323,0.8717850256832791,441.237177293155,-29.328051339113586)" fill="none" stroke=" #FFFFFF"></use><use xlink:href="#bbburst-shape-10" width="19.090654322474762" opacity="0.8304892190101553" transform="matrix(0.7204013772018568,-0.6935573918037844,0.6935573918037844,0.7204013772018568,51.98321362460075,160.39674078022)" fill="none" stroke=" #FFFFFF"></use><use xlink:href="#bbburst-shape-1" width="23.327928000888406" opacity="0.611886883172555" transform="matrix(0.8704714263021794,0.49221895127214405,-0.49221895127214405,0.8704714263021794,412.2614750637056,54.29902356175012)" fill=" #FFFFFF"></use><use xlink:href="#bbburst-shape-10" width="27.701714615459007" opacity="0.6271384344027237" transform="matrix(0.8955412391905093,0.44497852634607765,-0.44497852634607765,0.8955412391905093,612.4983154081204,-125.47631952004753)" fill="none" stroke=" #FFFFFF"></use><use xlink:href="#bbburst-shape-10" width="30.00095109387083" opacity="0.6088387146421133" transform="matrix(0.949601202324729,0.31346061402260605,-0.31346061402260605,0.949601202324729,417.07686960941317,164.23958269319309)" fill="none" stroke=" #FFFFFF"></use><use xlink:href="#bbburst-shape-6" width="20.952463841569834" opacity="0.8155038255758402" transform="matrix(0.7629781536203022,-0.6464242701957861,0.6464242701957861,0.7629781536203022,99.20221380629636,25.944884314141746)" fill=" #FFFFFF"></use><use xlink:href="#bbburst-shape-4" width="13.396925370032687" opacity="0.9074796231084198" transform="matrix(0.8055665561750825,-0.5925052941301179,0.5925052941301179,0.8055665561750825,140.94902618078825,119.90763674458287)" fill=" #FFFFFF"></use><use xlink:href="#bbburst-shape-1" width="31.78446353804584" opacity="0.33686865767711716" transform="matrix(0.9853515624632183,0.17053532874831062,-0.17053532874831062,0.9853515624632183,533.6757493378302,-283.9797883377791)" fill=" #FFFFFF"></use><use xlink:href="#bbburst-shape-4" width="19.17232771221609" opacity="0.8242173786868556" transform="matrix(0.7996945438920912,0.6004070589768414,-0.6004070589768414,0.7996945438920912,553.7686562613626,66.59084508465048)" fill=" #FFFFFF"></use><use xlink:href="#bbburst-shape-10" width="32.98703193780844" opacity="0.5978401887761949" transform="matrix(0.8287308596093963,-0.559647355332866,0.559647355332866,0.8287308596093963,121.88467023622121,-98.62356326365418)" fill="none" stroke=" #FFFFFF"></use><use xlink:href="#bbburst-shape-4" width="18.28227344357288" opacity="0.6975122157450272" transform="matrix(0.7268228501829619,-0.6868249736664471,0.6868249736664471,0.7268228501829619,78.75736502653217,245.70778055888218)" fill=" #FFFFFF"></use><use xlink:href="#bbburst-shape-4" width="21.678356225623133" opacity="0.8533052306361055" transform="matrix(0.9926853749027553,0.12073005613423721,-0.12073005613423721,0.9926853749027553,456.45858458676275,-61.603777778560584)" fill=" #FFFFFF"></use><use xlink:href="#bbburst-shape-8" width="30.557242338439202" opacity="0.16742367773618394" transform="matrix(0.7743723334042085,0.6327301867764185,-0.6327301867764185,0.7743723334042085,733.6845856808158,-282.49667803583515)" fill="none" stroke=" #FFFFFF"></use><use xlink:href="#bbburst-shape-6" width="39.019688254687736" opacity="0.1741187853722994" transform="matrix(0.8866206879718259,0.4624973034087509,-0.4624973034087509,0.8866206879718259,829.1541409262059,-227.7986581092647)" fill=" #FFFFFF"></use><use xlink:href="#bbburst-shape-10" width="35.57284450483567" opacity="0.20121008152076414" transform="matrix(0.8809620333365589,0.4731869565187905,-0.4731869565187905,0.8809620333365589,221.2226644408729,-31.75509601096934)" fill="none" stroke=" #FFFFFF"></use><use xlink:href="#bbburst-shape-1" width="30.920747701898176" opacity="0.057455409451777184" transform="matrix(0.8432546530231716,-0.5375142697219959,0.5375142697219959,0.8432546530231716,534.3601330743829,291.4477239378639)" fill=" #FFFFFF"></use></svg>