<svg xmlns="http://www.w3.org/2000/svg" version="1.1" xmlns:xlink="http://www.w3.org/1999/xlink" xmlns:svgjs="http://svgjs.dev/svgjs" viewBox="0 0 800 800"><defs><filter id="llleaves-blur-2" x="-100%" y="-100%" width="400%" height="400%"><feGaussianBlur in="SourceGraphic" stdDeviation="2"></feGaussianBlur></filter><filter id="llleaves-blur-3" x="-100%" y="-100%" width="400%" height="400%"><feGaussianBlur in="SourceGraphic" stdDeviation="4"></feGaussianBlur></filter><filter id="llleaves-blur-4" x="-100%" y="-100%" width="400%" height="400%"><feGaussianBlur in="SourceGraphic" stdDeviation="12"></feGaussianBlur></filter></defs><g fill="hsl(305, 77%, 40%)"><path d="M467 202H517C545 202 567 224 567 252H517C489 252 467 230 467 202Z " transform="matrix(0.25161022979093645,-0.49381288028025705,0.49381288028025705,0.25161022979093645,274.82198737446754,425.18573694235033)" opacity="0.85"></path><path d="M298 537H348C376 537 398 559 398 587H348C320 587 298 565 298 537Z " transform="matrix(0.5421537194765397,-0.2762411176113605,0.2762411176113605,0.5421537194765397,4.082997524579582,353.4415185829381)" opacity="0.94"></path><path d="M207 40H257C285 40 307 62 307 90H257C229 90 207 68 207 40Z " transform="matrix(0.3774878695817701,-0.43425011927603335,0.43425011927603335,0.3774878695817701,131.75935976454292,152.06556913112553)" opacity="0.88"></path><path d="M528 384H578C606 384 628 406 628 434H578C550 434 528 412 528 384Z " transform="matrix(0.22337856108979628,-0.5017164627094913,0.5017164627094913,0.22337856108979628,243.6851584419158,607.6302839603593)" opacity="0.84"></path><path d="M117 117H167C195 117 217 139 217 167H167C139 167 117 145 117 117Z " transform="matrix(0.48083213534974106,-0.3493449951632169,0.3493449951632169,0.48083213534974106,37.09404408341646,132.06245097259398)" opacity="0.91"></path><path d="M67 430H117C145 430 167 452 167 480H117C89 480 67 458 67 430Z " transform="matrix(0.4669622356483108,-0.36483088283346843,0.36483088283346843,0.4669622356483108,-103.63263326008052,285.2173960715344)" opacity="0.91"></path><path d="M2 249H52C80 249 102 271 102 299H52C24 299 2 277 2 249Z " transform="matrix(0.2512207486953332,-0.4930484805903304,0.4930484805903304,0.2512207486953332,-96.15876261390784,230.8040358481759)" opacity="0.85"></path><path d="M307 140H357C385 140 407 162 407 190H357C329 190 307 168 307 140Z " transform="matrix(0.5167606477297544,-0.31050112268398355,0.31050112268398355,0.5167606477297544,121.2837635176204,190.58339392277264)" opacity="0.93"></path><path d="M605 636H655C683 636 705 658 705 686H655C627 686 605 664 605 636Z " transform="matrix(0.269717422496236,-0.4865831106119295,0.4865831106119295,0.269717422496236,156.70365215047997,801.4287211808017)" opacity="0.86"></path><path d="M258 400H308C336 400 358 422 358 450H308C280 450 258 428 258 400Z " transform="matrix(0.5718040743417366,-0.2310238420734575,0.2310238420734575,0.5718040743417366,33.69921222152567,253.13861176338682)" opacity="0.95"></path><path d="M697 18H747C775 18 797 40 797 68H747C719 68 697 46 697 18Z " transform="matrix(0.5541933583942743,-0.2584246071178883,0.2584246071178883,0.5541933583942743,321.9053031734079,212.21286710610875)" opacity="0.94"></path><path d="M701 569H751C779 569 801 591 801 619H751C723 619 701 597 701 569Z " transform="matrix(0.42692804813679414,-0.39811684558286614,0.39811684558286614,0.42692804813679414,193.89562957304508,639.3904904394767)" opacity="0.90"></path><path d="M704 387H754C782 387 804 409 804 437H754C726 437 704 415 704 387Z " transform="matrix(0.42692804813679414,-0.39811684558286614,0.39811684558286614,0.42692804813679414,268.0721113247164,536.2857457371218)" opacity="0.90"></path><path d="M101 533H151C179 533 201 555 201 583H151C123 583 101 561 101 533Z " transform="matrix(0.5356800484534476,-0.28482613411557606,0.28482613411557606,0.5356800484534476,-88.82067015296201,302.0992792144282)" opacity="0.93"></path><path d="M427 517H477C505 517 527 539 527 567H477C449 567 427 545 427 517Z " transform="matrix(0.32437245492658184,-0.4632518749454443,0.4632518749454443,0.32437245492658184,71.1918227795897,587.1612737787696)" opacity="0.87"></path><path d="M699 194H749C777 194 799 216 799 244H749C721 244 699 222 699 194Z " transform="matrix(0.3945343864002793,-0.42308633100444776,0.42308633100444776,0.3945343864002793,360.83783809621673,449.48863130067025)" opacity="0.89"></path><path d="M611 442H661C689 442 711 464 711 492H661C633 492 611 470 611 442Z " transform="matrix(0.269717422496236,-0.4865831106119295,0.4865831106119295,0.269717422496236,255.4824710742169,662.6733998087432)" opacity="0.86"></path><path d="M303 644H353C381 644 403 666 403 694H353C325 694 303 672 303 644Z " transform="matrix(0.5226478290123673,-0.30175086477166413,0.30175086477166413,0.5226478290123673,-33.366012173608965,425.86665765512373)" opacity="0.93"></path><path d="M489 729H539C567 729 589 751 589 779H539C511 779 489 757 489 729Z " transform="matrix(0.2418856203427891,-0.49593901661161166,0.49593901661161166,0.2418856203427891,34.685632110081485,838.9293722151957)" opacity="0.85"></path><path d="M516 107H566C594 107 616 129 616 157H566C538 157 516 135 516 107Z " transform="matrix(0.3242697367516357,-0.4631051781886387,0.4631051781886387,0.3242697367516357,321.3334454776739,351.31392560355357)" opacity="0.87"></path><path d="M-8 364H42C70 364 92 386 92 414H42C14 414 -8 392 -8 364Z " transform="matrix(0.17636049268877502,-0.5121880612590085,0.5121880612590085,0.17636049268877502,-164.64829652268284,341.9076669169449)" opacity="0.83"></path><path d="M93 637H143C171 637 193 659 193 687H143C115 687 93 665 93 637Z " transform="matrix(0.5033274626016792,-0.3268646760783664,0.3268646760783664,0.5033274626016792,-145.36024271591862,375.5388684368948)" opacity="0.92"></path><path d="M7 721H57C85 721 107 743 107 771H57C29 771 7 749 7 721Z " transform="matrix(0.2512207486953332,-0.4930484805903304,0.4930484805903304,0.2512207486953332,-325.13374919602046,586.6930848669302)" opacity="0.85"></path><path d="M710 105H760C788 105 810 127 810 155H760C732 155 710 133 710 105Z " transform="matrix(0.4953982185161292,-0.3341503176176951,0.3341503176176951,0.4953982185161292,340.0578126374415,319.55247298235145)" opacity="0.92"></path><path d="M627 251H677C705 251 727 273 727 301H677C649 301 627 279 627 251Z " transform="matrix(0.2883497536908202,-0.47989457880845776,0.47989457880845776,0.2883497536908202,349.3363130001804,521.3040978346595)" opacity="0.86"></path><path d="M618 345H668C696 345 718 367 718 395H668C640 395 618 373 618 345Z " transform="matrix(0.2883497536908202,-0.47989457880845776,0.47989457880845776,0.2883497536908202,297.82137037540275,583.8801697784463)" opacity="0.86"></path><path d="M90 322H140C168 322 190 344 190 372H140C112 372 90 350 90 322Z " transform="matrix(0.5033274626016792,-0.3268646760783664,0.3268646760783664,0.5033274626016792,-43.887887363428206,218.10642512818865)" opacity="0.92"></path><path d="M408 117H458C486 117 508 139 508 167H458C430 167 408 145 408 117Z " transform="matrix(0.38572352975795604,-0.42838937941327704,0.42838937941327704,0.38572352975795604,220.50733149417076,283.4295945456511)" opacity="0.89"></path><path d="M1 31H51C79 31 101 53 101 81H51C23 81 1 59 1 31Z " transform="matrix(-0.24546982044211602,-0.3928338294910249,0.3928338294910249,-0.24546982044211602,41.52026639105053,89.78083524880077)" opacity="0.71"></path><path d="M387 593H437C465 593 487 615 487 643H437C409 643 387 621 387 593Z " transform="matrix(0.37764639528942134,-0.43443248224184766,0.43443248224184766,0.37764639528942134,3.4892512330609975,574.4615224508251)" opacity="0.89"></path><path d="M520 493H570C598 493 620 515 620 543H570C542 543 520 521 520 493Z " transform="matrix(0.22337856108979628,-0.5017164627094913,0.5017164627094913,0.22337856108979628,182.78509249529958,688.2682890998956)" opacity="0.84"></path><path d="M362 732H412C440 732 462 754 462 782H412C384 782 362 760 362 732Z " transform="matrix(0.4428883398247525,-0.38499696014310364,0.38499696014310364,0.4428883398247525,-61.91269483612746,580.3522743316211)" opacity="0.90"></path><path d="M393 22H443C471 22 493 44 493 72H443C415 72 393 50 393 22Z " transform="matrix(0.37777239609468277,-0.43457742958750484,0.43457742958750484,0.37777239609468277,255.2216893394428,221.76249869081454)" opacity="0.89"></path><path d="M510 605H560C588 605 610 627 610 655H560C532 655 510 633 510 605Z " transform="matrix(0.23248186782871275,-0.49855897445166275,0.49855897445166275,0.23248186782871275,115.71800011137327,762.7294489608421)" opacity="0.85"></path><path d="M104 20H154C182 20 204 42 204 70H154C126 70 104 48 104 20Z " transform="matrix(0.06380357276980818,-0.5196383999798034,0.5196383999798034,0.06380357276980818,120.79052179435838,122.15315282224836)" opacity="0.80"></path><path d="M300 30H350C378 30 400 52 400 80H350C322 80 300 58 300 30Z " transform="matrix(0.41927013102691774,-0.40488445914458593,0.40488445914458593,0.41927013102691774,180.98680888762658,173.64970349412462)" opacity="0.90"></path><path d="M445 309H495C523 309 545 331 545 359H495C467 359 445 337 445 309Z " transform="matrix(0.2973680834946694,-0.47588841185128183,0.47588841185128183,0.2973680834946694,188.85606911181054,470.243823979165)" opacity="0.86"></path><path d="M490 21H540C568 21 590 43 590 71H540C512 71 490 49 490 21Z " transform="matrix(0.3938205342631042,-0.42232081830895696,0.42232081830895696,0.3938205342631042,307.9101538557117,255.93749731073393)" opacity="0.89"></path></g><g fill="none" stroke-width="3" stroke="hsl(305, 77%, 40%)"><path d="M592 21H642C670 21 692 43 692 71H642C614 71 592 49 592 21Z " transform="matrix(0.45882057927414277,-0.3715455791974852,0.3715455791974852,0.45882057927414277,330.34609146291604,263.42651519817497)" opacity="0.91"></path><path d="M606 540H656C684 540 706 562 706 590H656C628 590 606 568 606 540Z " transform="matrix(0.269717422496236,-0.4865831106119295,0.4865831106119295,0.269717422496236,204.14591334672906,731.8081768510524)" opacity="0.86"></path><path d="M371 229H421C449 229 471 251 471 279H421C393 279 371 257 371 229Z " transform="matrix(0.41093661573004864,-0.4109366157300488,0.4109366157300488,0.41093661573004864,143.61778438221717,322.6264148269182)" opacity="0.89"></path><path d="M352 346H402C430 346 452 368 452 396H402C374 396 352 374 352 346Z " transform="matrix(0.4428883398247525,-0.38499696014310364,0.38499696014310364,0.4428883398247525,81.12501517735802,361.4572039025445)" opacity="0.90"></path><path d="M535 281H585C613 281 635 303 635 331H585C557 331 535 309 535 281Z " transform="matrix(0.22333520635927684,-0.501619086390422,0.501619086390422,0.22333520635927684,300.85346384435394,531.1065923924582)" opacity="0.84"></path><path d="M431 666H481C509 666 531 688 531 716H481C453 716 431 694 431 666Z " transform="matrix(0.32437245492658184,-0.4632518749454443,0.4632518749454443,0.32437245492658184,4.869803593012136,689.6827854944906)" opacity="0.87"></path><path d="M160 414H210C238 414 260 436 260 464H210C182 464 160 442 160 414Z " transform="matrix(0.5824587272538221,-0.2119976394089676,0.2119976394089676,0.5824587272538221,-5.383296423839425,227.82012301145528)" opacity="0.95"></path><path d="M622 111H672C700 111 722 133 722 161H672C644 161 622 139 622 111Z " transform="matrix(0.3604000343113505,-0.44505697758622154,0.44505697758622154,0.3604000343113505,369.2834279910463,386.06388427159726)" opacity="0.88"></path><path d="M280 269H330C358 269 380 291 380 319H330C302 319 280 297 280 269Z " transform="matrix(0.5599310171727312,-0.24929735063928643,0.24929735063928643,0.5599310171727312,71.92934324504847,211.64840666218157)" opacity="0.94"></path><path d="M708 291H758C786 291 808 313 808 341H758C730 341 708 319 708 291Z " transform="matrix(0.42692804813679414,-0.39811684558286614,0.39811684558286614,0.42692804813679414,308.5836163081243,482.86330574058553)" opacity="0.90"></path><path d="M198 621H248C276 621 298 643 298 671H248C220 671 198 649 198 621Z " transform="matrix(0.5925307081443769,-0.19252489769894,0.19252489769894,0.5925307081443769,-23.31869953332074,310.9713371680696)" opacity="0.96"></path><path d="M-5 493H45C73 493 95 515 95 543H45C17 543 -5 521 -5 493Z " transform="matrix(0.17636049268877502,-0.5121880612590085,0.5121880612590085,0.17636049268877502,-228.24963790316127,449.69372754386995)" opacity="0.83"></path><path d="M129 728H179C207 728 229 750 229 778H179C151 778 129 756 129 728Z " transform="matrix(0.554821803393534,-0.2587176558337723,0.2587176558337723,0.554821803393534,-115.12749765027314,381.52964243891415)" opacity="0.94"></path><path d="M-2 606H48C76 606 98 628 98 656H48C20 656 -2 634 -2 606Z " transform="matrix(0.17636049268877502,-0.5121880612590085,0.5121880612590085,0.17636049268877502,-283.65597030349556,544.3015560538154)" opacity="0.83"></path><path d="M702 480H752C780 480 802 502 802 530H752C724 530 702 508 702 480Z " transform="matrix(0.42692804813679414,-0.39811684558286614,0.39811684558286614,0.42692804813679414,229.90110078178338,588.7852035692342)" opacity="0.90"></path><path d="M214 172H264C292 172 314 194 314 222H264C236 222 214 200 214 172Z " transform="matrix(0.5924668562079378,-0.19250415094714832,0.19250415094714832,0.5924668562079378,69.6654322245162,131.1051251770834)" opacity="0.96"></path><path d="M344 452H394C422 452 444 474 444 502H394C366 502 344 480 344 452Z " transform="matrix(0.4669294044660365,-0.36480523230265627,0.36480523230265627,0.4669294044660365,36.017718832014566,398.00793559694716)" opacity="0.91"></path><path d="M191 301H241C269 301 291 323 291 351H241C213 351 191 329 191 301Z " transform="matrix(0.5925307081443769,-0.19252489769894,0.19252489769894,0.5925307081443769,35.436982687350735,179.23348949037768)" opacity="0.96"></path><path d="M702 655H752C780 655 802 677 802 705H752C724 705 702 683 702 655Z " transform="matrix(0.42692804813679414,-0.39811684558286614,0.39811684558286614,0.42692804813679414,160.2306528047818,689.0727951452952)" opacity="0.90"></path><path d="M588 727H638C666 727 688 749 688 777H638C610 777 588 755 588 727Z " transform="matrix(0.2512571130435448,-0.49311984964215644,0.49311984964215644,0.2512571130435448,106.87183494731676,877.66511506295)" opacity="0.85"></path><path d="M112 218H162C190 218 212 240 212 268H162C134 268 112 246 112 218Z " transform="matrix(0.5356800484534476,-0.28482613411557606,0.28482613411557606,0.5356800484534476,6.007081560456498,158.97158195253553)" opacity="0.93"></path><path d="M243 727H293C321 727 343 749 343 777H293C265 777 243 755 243 727Z " transform="matrix(0.5823443120605293,-0.2119559956842612,0.2119559956842612,0.5823443120605293,-37.01779218829955,376.1801840659705)" opacity="0.95"></path><path d="M205 510H255C283 510 305 532 305 560H255C227 560 205 538 205 510Z " transform="matrix(0.5924668562079378,-0.19250415094714832,0.19250415094714832,0.5924668562079378,0.9312309102515144,267.1187904202761)" opacity="0.96"></path><path d="M694 735H744C772 735 794 757 794 785H744C716 785 694 763 694 735Z " transform="matrix(0.3945343864002793,-0.42308633100444776,0.42308633100444776,0.3945343864002793,128.92080495481196,774.9300966030969)" opacity="0.89"></path><path d="M6 140H56C84 140 106 162 106 190H56C28 190 6 168 6 140Z " transform="matrix(0.13872871388864955,-0.5177426087011254,0.5177426087011254,0.13872871388864955,-37.196338413450064,171.10334829563587)" opacity="0.82"></path><path d="M569 186H619C647 186 669 208 669 236H619C591 236 569 214 569 186Z " transform="matrix(0.23296342597181663,-0.4995916792221768,0.4995916792221768,0.23296342597181663,369.3817950075662,471.09196655847416)" opacity="0.85"></path><path d="M439 415H489C517 415 539 437 539 465H489C461 465 439 443 439 415Z " transform="matrix(0.2973680834946694,-0.47588841185128183,0.47588841185128183,0.2973680834946694,134.19610595654262,541.8674766576223)" opacity="0.86"></path></g></svg>