<svg xmlns="http://www.w3.org/2000/svg" version="1.1" xmlns:xlink="http://www.w3.org/1999/xlink" xmlns:svgjs="http://svgjs.dev/svgjs" viewBox="0 0 800 800"><circle r="5.5" cx="606" cy="162" fill="hsl(150, 75%, 70%)" opacity="0.68"></circle><circle r="12.5" cx="23" cy="464" fill="hsl(192, 75%, 70%)" opacity="0.43"></circle><circle r="8.5" cx="782" cy="349" fill="hsl(158, 75%, 70%)" opacity="0.57"></circle><circle r="12.5" cx="356" cy="80" fill="hsl(241, 75%, 70%)" opacity="0.33"></circle><circle r="3" cx="262" cy="584" fill="hsl(34, 75%, 70%)" opacity="0.51"></circle><circle r="10.5" cx="545" cy="59" fill="hsl(194, 75%, 70%)" opacity="0.38"></circle><circle r="8.5" cx="279" cy="170" fill="hsl(58, 75%, 70%)" opacity="0.39"></circle><circle r="5" cx="610" cy="30" fill="hsl(134, 75%, 70%)" opacity="0.39"></circle><circle r="8.5" cx="54" cy="645" fill="hsl(190, 75%, 70%)" opacity="0.49"></circle><circle r="10" cx="605" cy="609" fill="hsl(174, 75%, 70%)" opacity="0.58"></circle><circle r="4" cx="352" cy="727" fill="hsl(100, 75%, 70%)" opacity="0.99"></circle><circle r="9" cx="524" cy="280" fill="hsl(197, 75%, 70%)" opacity="0.81"></circle><circle r="4.5" cx="282" cy="674" fill="hsl(38, 75%, 70%)" opacity="0.26"></circle><circle r="7" cx="27" cy="616" fill="hsl(193, 75%, 70%)" opacity="0.24"></circle><circle r="13.5" cx="246" cy="74" fill="hsl(233, 75%, 70%)" opacity="0.58"></circle><circle r="6.5" cx="460" cy="539" fill="hsl(188, 75%, 70%)" opacity="0.32"></circle><circle r="12" cx="25" cy="23" fill="hsl(215, 75%, 70%)" opacity="0.51"></circle><circle r="5.5" cx="326" cy="679" fill="hsl(74, 75%, 70%)" opacity="0.37"></circle><circle r="6.5" cx="201" cy="218" fill="hsl(59, 75%, 70%)" opacity="0.61"></circle><circle r="14" cx="770" cy="659" fill="hsl(158, 75%, 70%)" opacity="0.55"></circle><circle r="10" cx="350" cy="243" fill="hsl(100, 75%, 70%)" opacity="0.88"></circle><circle r="6" cx="113" cy="512" fill="hsl(152, 75%, 70%)" opacity="0.63"></circle><circle r="6" cx="212" cy="287" fill="hsl(59, 75%, 70%)" opacity="0.97"></circle><circle r="10" cx="666" cy="316" fill="hsl(163, 75%, 70%)" opacity="0.50"></circle><circle r="9" cx="732" cy="373" fill="hsl(158, 75%, 70%)" opacity="0.65"></circle><circle r="12" cx="643" cy="700" fill="hsl(166, 75%, 70%)" opacity="0.95"></circle><circle r="10" cx="666" cy="532" fill="hsl(163, 75%, 70%)" opacity="0.70"></circle><circle r="8.5" cx="477" cy="607" fill="hsl(196, 75%, 70%)" opacity="0.72"></circle><circle r="9" cx="632" cy="657" fill="hsl(168, 75%, 70%)" opacity="0.76"></circle><circle r="12" cx="432" cy="776" fill="hsl(173, 75%, 70%)" opacity="0.48"></circle><circle r="7.5" cx="499" cy="313" fill="hsl(198, 75%, 70%)" opacity="0.66"></circle><circle r="6.5" cx="185" cy="627" fill="hsl(84, 75%, 70%)" opacity="0.85"></circle><circle r="5.5" cx="338" cy="755" fill="hsl(87, 75%, 70%)" opacity="0.22"></circle><circle r="10" cx="715" cy="319" fill="hsl(159, 75%, 70%)" opacity="0.28"></circle><circle r="6.5" cx="586" cy="185" fill="hsl(174, 75%, 70%)" opacity="0.36"></circle><circle r="7.5" cx="469" cy="510" fill="hsl(193, 75%, 70%)" opacity="0.71"></circle><circle r="10" cx="548" cy="441" fill="hsl(192, 75%, 70%)" opacity="0.16"></circle><circle r="6.5" cx="305" cy="776" fill="hsl(52, 75%, 70%)" opacity="0.96"></circle><circle r="11.5" cx="651" cy="360" fill="hsl(164, 75%, 70%)" opacity="0.42"></circle><circle r="7" cx="225" cy="148" fill="hsl(115, 75%, 70%)" opacity="0.77"></circle><circle r="5" cx="252" cy="682" fill="hsl(34, 75%, 70%)" opacity="0.70"></circle><circle r="7.5" cx="13" cy="321" fill="hsl(192, 75%, 70%)" opacity="0.72"></circle><circle r="6.5" cx="446" cy="683" fill="hsl(181, 75%, 70%)" opacity="0.12"></circle><circle r="7.5" cx="474" cy="744" fill="hsl(193, 75%, 70%)" opacity="0.34"></circle><circle r="7" cx="758" cy="599" fill="hsl(158, 75%, 70%)" opacity="0.71"></circle><circle r="10" cx="512" cy="478" fill="hsl(198, 75%, 70%)" opacity="0.65"></circle><circle r="7.5" cx="16" cy="642" fill="hsl(192, 75%, 70%)" opacity="0.92"></circle><circle r="5" cx="203" cy="569" fill="hsl(59, 75%, 70%)" opacity="0.61"></circle><circle r="12" cx="716" cy="145" fill="hsl(101, 75%, 70%)" opacity="0.68"></circle><circle r="12.5" cx="720" cy="431" fill="hsl(159, 75%, 70%)" opacity="0.88"></circle><circle r="7.5" cx="483" cy="564" fill="hsl(196, 75%, 70%)" opacity="0.62"></circle><circle r="5.5" cx="260" cy="327" fill="hsl(34, 75%, 70%)" opacity="0.54"></circle><circle r="7.5" cx="391" cy="407" fill="hsl(140, 75%, 70%)" opacity="0.79"></circle><circle r="4.5" cx="333" cy="520" fill="hsl(74, 75%, 70%)" opacity="0.33"></circle><circle r="12" cx="577" cy="712" fill="hsl(181, 75%, 70%)" opacity="0.17"></circle><circle r="7" cx="392" cy="756" fill="hsl(140, 75%, 70%)" opacity="0.89"></circle><circle r="6" cx="679" cy="567" fill="hsl(161, 75%, 70%)" opacity="0.98"></circle><circle r="10" cx="540" cy="743" fill="hsl(192, 75%, 70%)" opacity="0.33"></circle><circle r="9" cx="508" cy="197" fill="hsl(198, 75%, 70%)" opacity="0.10"></circle><circle r="6.5" cx="757" cy="737" fill="hsl(158, 75%, 70%)" opacity="0.57"></circle><circle r="11.5" cx="556" cy="214" fill="hsl(189, 75%, 70%)" opacity="0.54"></circle><circle r="5" cx="291" cy="707" fill="hsl(44, 75%, 70%)" opacity="0.32"></circle><circle r="11.5" cx="522" cy="624" fill="hsl(197, 75%, 70%)" opacity="0.99"></circle><circle r="7" cx="785" cy="296" fill="hsl(158, 75%, 70%)" opacity="0.52"></circle><circle r="8" cx="677" cy="189" fill="hsl(161, 75%, 70%)" opacity="0.79"></circle><circle r="9" cx="564" cy="94" fill="hsl(166, 75%, 70%)" opacity="0.48"></circle><circle r="5.5" cx="333" cy="629" fill="hsl(74, 75%, 70%)" opacity="0.49"></circle><circle r="19" cx="349" cy="28" fill="hsl(312, 75%, 70%)" opacity="0.93"></circle><circle r="9.5" cx="539" cy="354" fill="hsl(192, 75%, 70%)" opacity="0.60"></circle><circle r="10" cx="607" cy="514" fill="hsl(174, 75%, 70%)" opacity="0.14"></circle><circle r="7" cx="440" cy="322" fill="hsl(181, 75%, 70%)" opacity="0.38"></circle><circle r="8" cx="491" cy="284" fill="hsl(198, 75%, 70%)" opacity="0.64"></circle><circle r="12.5" cx="637" cy="472" fill="hsl(168, 75%, 70%)" opacity="0.93"></circle><circle r="9" cx="179" cy="326" fill="hsl(84, 75%, 70%)" opacity="0.56"></circle><circle r="7.5" cx="611" cy="273" fill="hsl(174, 75%, 70%)" opacity="0.23"></circle><circle r="7.5" cx="504" cy="683" fill="hsl(198, 75%, 70%)" opacity="0.88"></circle><circle r="7.5" cx="139" cy="693" fill="hsl(126, 75%, 70%)" opacity="0.52"></circle><circle r="9" cx="630" cy="543" fill="hsl(168, 75%, 70%)" opacity="0.55"></circle><circle r="10" cx="484" cy="133" fill="hsl(209, 75%, 70%)" opacity="0.98"></circle><circle r="8.5" cx="14" cy="584" fill="hsl(192, 75%, 70%)" opacity="0.46"></circle><circle r="7" cx="342" cy="411" fill="hsl(87, 75%, 70%)" opacity="0.46"></circle><circle r="8.5" cx="89" cy="651" fill="hsl(173, 75%, 70%)" opacity="0.43"></circle><circle r="7.5" cx="356" cy="476" fill="hsl(100, 75%, 70%)" opacity="0.60"></circle><circle r="9.5" cx="65" cy="478" fill="hsl(186, 75%, 70%)" opacity="0.69"></circle><circle r="3.5" cx="222" cy="731" fill="hsl(49, 75%, 70%)" opacity="0.24"></circle><circle r="14.5" cx="238" cy="22" fill="hsl(301, 75%, 70%)" opacity="0.28"></circle><circle r="9" cx="445" cy="568" fill="hsl(181, 75%, 70%)" opacity="0.51"></circle><circle r="5" cx="278" cy="360" fill="hsl(38, 75%, 70%)" opacity="0.11"></circle><circle r="7.5" cx="662" cy="128" fill="hsl(113, 75%, 70%)" opacity="0.62"></circle><circle r="7.5" cx="146" cy="610" fill="hsl(126, 75%, 70%)" opacity="0.85"></circle><circle r="7.5" cx="370" cy="381" fill="hsl(114, 75%, 70%)" opacity="0.13"></circle><circle r="5.5" cx="227" cy="330" fill="hsl(42, 75%, 70%)" opacity="0.81"></circle><circle r="10" cx="777" cy="497" fill="hsl(158, 75%, 70%)" opacity="0.17"></circle><circle r="13" cx="450" cy="20" fill="hsl(294, 75%, 70%)" opacity="0.12"></circle><circle r="7" cx="771" cy="223" fill="hsl(158, 75%, 70%)" opacity="0.95"></circle><circle r="14.5" cx="410" cy="82" fill="hsl(259, 75%, 70%)" opacity="0.59"></circle><circle r="6.5" cx="760" cy="16" fill="hsl(98, 75%, 70%)" opacity="0.81"></circle><circle r="8.5" cx="33" cy="182" fill="hsl(195, 75%, 70%)" opacity="0.97"></circle><circle r="7.5" cx="769" cy="385" fill="hsl(158, 75%, 70%)" opacity="0.56"></circle><circle r="4.5" cx="789" cy="30" fill="hsl(99, 75%, 70%)" opacity="0.78"></circle><circle r="9.5" cx="556" cy="542" fill="hsl(189, 75%, 70%)" opacity="0.87"></circle><circle r="9.5" cx="440" cy="194" fill="hsl(181, 75%, 70%)" opacity="0.47"></circle><circle r="8" cx="372" cy="672" fill="hsl(114, 75%, 70%)" opacity="0.96"></circle><circle r="9" cx="699" cy="666" fill="hsl(160, 75%, 70%)" opacity="0.31"></circle><circle r="10.5" cx="488" cy="346" fill="hsl(198, 75%, 70%)" opacity="0.52"></circle><circle r="4" cx="99" cy="488" fill="hsl(173, 75%, 70%)" opacity="0.27"></circle><circle r="11" cx="161" cy="369" fill="hsl(112, 75%, 70%)" opacity="0.97"></circle><circle r="3.5" cx="712" cy="9" fill="hsl(100, 75%, 70%)" opacity="0.28"></circle><circle r="6" cx="270" cy="635" fill="hsl(35, 75%, 70%)" opacity="0.46"></circle><circle r="7.5" cx="452" cy="99" fill="hsl(243, 75%, 70%)" opacity="0.89"></circle><circle r="7.5" cx="137" cy="534" fill="hsl(139, 75%, 70%)" opacity="0.57"></circle><circle r="12" cx="466" cy="388" fill="hsl(193, 75%, 70%)" opacity="0.42"></circle><circle r="4" cx="209" cy="647" fill="hsl(59, 75%, 70%)" opacity="0.15"></circle><circle r="8" cx="548" cy="784" fill="hsl(192, 75%, 70%)" opacity="0.62"></circle><circle r="6.5" cx="288" cy="522" fill="hsl(44, 75%, 70%)" opacity="0.87"></circle><circle r="10" cx="406" cy="220" fill="hsl(152, 75%, 70%)" opacity="0.91"></circle><circle r="6" cx="193" cy="737" fill="hsl(71, 75%, 70%)" opacity="0.91"></circle><circle r="7.5" cx="81" cy="509" fill="hsl(181, 75%, 70%)" opacity="0.56"></circle><circle r="8" cx="582" cy="774" fill="hsl(181, 75%, 70%)" opacity="0.17"></circle><circle r="7.5" cx="181" cy="11" fill="hsl(306, 75%, 70%)" opacity="0.84"></circle><circle r="8.5" cx="515" cy="777" fill="hsl(197, 75%, 70%)" opacity="0.21"></circle><circle r="6" cx="342" cy="147" fill="hsl(128, 75%, 70%)" opacity="0.96"></circle><circle r="8.5" cx="603" cy="209" fill="hsl(174, 75%, 70%)" opacity="0.66"></circle><circle r="10.5" cx="64" cy="774" fill="hsl(186, 75%, 70%)" opacity="0.50"></circle><circle r="6" cx="641" cy="215" fill="hsl(166, 75%, 70%)" opacity="0.83"></circle><circle r="10.5" cx="112" cy="366" fill="hsl(163, 75%, 70%)" opacity="0.76"></circle><circle r="7" cx="165" cy="718" fill="hsl(97, 75%, 70%)" opacity="0.49"></circle><circle r="6.5" cx="176" cy="666" fill="hsl(84, 75%, 70%)" opacity="0.34"></circle><circle r="11" cx="416" cy="653" fill="hsl(163, 75%, 70%)" opacity="0.77"></circle><circle r="11" cx="194" cy="42" fill="hsl(281, 75%, 70%)" opacity="0.87"></circle><circle r="10.5" cx="756" cy="267" fill="hsl(158, 75%, 70%)" opacity="0.74"></circle><circle r="6.5" cx="177" cy="241" fill="hsl(84, 75%, 70%)" opacity="0.88"></circle><circle r="5" cx="222" cy="608" fill="hsl(49, 75%, 70%)" opacity="0.27"></circle><circle r="10" cx="481" cy="778" fill="hsl(196, 75%, 70%)" opacity="0.65"></circle><circle r="10.5" cx="590" cy="644" fill="hsl(177, 75%, 70%)" opacity="0.15"></circle><circle r="8" cx="635" cy="295" fill="hsl(168, 75%, 70%)" opacity="0.63"></circle><circle r="9.5" cx="516" cy="18" fill="hsl(217, 75%, 70%)" opacity="0.16"></circle><circle r="5" cx="305" cy="652" fill="hsl(52, 75%, 70%)" opacity="0.83"></circle><circle r="5.5" cx="731" cy="605" fill="hsl(158, 75%, 70%)" opacity="0.82"></circle><circle r="10" cx="691" cy="379" fill="hsl(160, 75%, 70%)" opacity="0.11"></circle><circle r="6.5" cx="322" cy="452" fill="hsl(62, 75%, 70%)" opacity="0.49"></circle><circle r="7" cx="364" cy="783" fill="hsl(114, 75%, 70%)" opacity="0.38"></circle><circle r="7.5" cx="323" cy="195" fill="hsl(62, 75%, 70%)" opacity="0.17"></circle><circle r="8" cx="524" cy="385" fill="hsl(197, 75%, 70%)" opacity="0.59"></circle><circle r="13" cx="25" cy="363" fill="hsl(192, 75%, 70%)" opacity="0.61"></circle><circle r="5.5" cx="693" cy="31" fill="hsl(89, 75%, 70%)" opacity="0.32"></circle><circle r="4.5" cx="270" cy="785" fill="hsl(35, 75%, 70%)" opacity="0.76"></circle><circle r="8.5" cx="655" cy="88" fill="hsl(99, 75%, 70%)" opacity="0.14"></circle><circle r="10" cx="426" cy="409" fill="hsl(173, 75%, 70%)" opacity="0.58"></circle><circle r="5.5" cx="184" cy="594" fill="hsl(84, 75%, 70%)" opacity="0.16"></circle><circle r="8" cx="708" cy="527" fill="hsl(160, 75%, 70%)" opacity="0.33"></circle><circle r="7.5" cx="469" cy="262" fill="hsl(193, 75%, 70%)" opacity="0.88"></circle><circle r="9" cx="370" cy="545" fill="hsl(114, 75%, 70%)" opacity="0.83"></circle><circle r="6" cx="787" cy="596" fill="hsl(158, 75%, 70%)" opacity="0.60"></circle><circle r="9.5" cx="137" cy="205" fill="hsl(139, 75%, 70%)" opacity="0.57"></circle><circle r="7.5" cx="735" cy="715" fill="hsl(158, 75%, 70%)" opacity="0.17"></circle><circle r="9" cx="451" cy="128" fill="hsl(210, 75%, 70%)" opacity="0.53"></circle><circle r="9" cx="506" cy="587" fill="hsl(198, 75%, 70%)" opacity="1.00"></circle><circle r="5.5" cx="255" cy="452" fill="hsl(34, 75%, 70%)" opacity="0.14"></circle><circle r="6.5" cx="668" cy="602" fill="hsl(163, 75%, 70%)" opacity="0.86"></circle><circle r="7.5" cx="784" cy="190" fill="hsl(158, 75%, 70%)" opacity="0.52"></circle><circle r="10" cx="72" cy="363" fill="hsl(186, 75%, 70%)" opacity="0.43"></circle><circle r="8" cx="783" cy="718" fill="hsl(158, 75%, 70%)" opacity="0.94"></circle><circle r="12" cx="46" cy="714" fill="hsl(193, 75%, 70%)" opacity="0.34"></circle><circle r="5" cx="492" cy="729" fill="hsl(198, 75%, 70%)" opacity="0.26"></circle><circle r="9" cx="734" cy="208" fill="hsl(158, 75%, 70%)" opacity="0.38"></circle><circle r="5.5" cx="567" cy="169" fill="hsl(173, 75%, 70%)" opacity="0.46"></circle><circle r="5.5" cx="692" cy="604" fill="hsl(160, 75%, 70%)" opacity="0.52"></circle><circle r="10.5" cx="680" cy="744" fill="hsl(161, 75%, 70%)" opacity="0.97"></circle><circle r="6.5" cx="196" cy="181" fill="hsl(85, 75%, 70%)" opacity="0.72"></circle><circle r="8" cx="470" cy="683" fill="hsl(193, 75%, 70%)" opacity="0.55"></circle><circle r="12" cx="691" cy="478" fill="hsl(160, 75%, 70%)" opacity="0.38"></circle><circle r="8" cx="704" cy="86" fill="hsl(75, 75%, 70%)" opacity="0.20"></circle><circle r="8" cx="538" cy="179" fill="hsl(187, 75%, 70%)" opacity="0.27"></circle><circle r="10.5" cx="586" cy="572" fill="hsl(181, 75%, 70%)" opacity="0.84"></circle><circle r="6" cx="12" cy="201" fill="hsl(191, 75%, 70%)" opacity="0.37"></circle><circle r="4.5" cx="699" cy="577" fill="hsl(160, 75%, 70%)" opacity="0.42"></circle><circle r="9" cx="648" cy="245" fill="hsl(166, 75%, 70%)" opacity="0.18"></circle><circle r="13" cx="132" cy="422" fill="hsl(139, 75%, 70%)" opacity="0.20"></circle><circle r="4" cx="228" cy="664" fill="hsl(42, 75%, 70%)" opacity="0.74"></circle><circle r="7.5" cx="733" cy="567" fill="hsl(158, 75%, 70%)" opacity="0.51"></circle><circle r="5.5" cx="342" cy="704" fill="hsl(87, 75%, 70%)" opacity="0.46"></circle><circle r="8" cx="334" cy="293" fill="hsl(74, 75%, 70%)" opacity="0.72"></circle><circle r="11.5" cx="54" cy="312" fill="hsl(190, 75%, 70%)" opacity="0.94"></circle><circle r="6" cx="308" cy="378" fill="hsl(52, 75%, 70%)" opacity="0.88"></circle><circle r="5" cx="316" cy="734" fill="hsl(62, 75%, 70%)" opacity="0.49"></circle><circle r="9.5" cx="383" cy="446" fill="hsl(127, 75%, 70%)" opacity="0.50"></circle><circle r="6" cx="743" cy="83" fill="hsl(67, 75%, 70%)" opacity="0.86"></circle><circle r="7" cx="347" cy="118" fill="hsl(166, 75%, 70%)" opacity="0.69"></circle><circle r="6" cx="203" cy="696" fill="hsl(59, 75%, 70%)" opacity="0.80"></circle><circle r="4" cx="719" cy="550" fill="hsl(159, 75%, 70%)" opacity="0.64"></circle><circle r="8" cx="513" cy="69" fill="hsl(217, 75%, 70%)" opacity="0.11"></circle><circle r="6" cx="382" cy="707" fill="hsl(127, 75%, 70%)" opacity="0.56"></circle><circle r="8" cx="777" cy="416" fill="hsl(158, 75%, 70%)" opacity="0.59"></circle><circle r="11" cx="512" cy="236" fill="hsl(198, 75%, 70%)" opacity="0.56"></circle><circle r="6.5" cx="775" cy="66" fill="hsl(68, 75%, 70%)" opacity="0.23"></circle><circle r="13" cx="77" cy="266" fill="hsl(181, 75%, 70%)" opacity="0.95"></circle><circle r="8.5" cx="519" cy="514" fill="hsl(197, 75%, 70%)" opacity="0.15"></circle><circle r="11" cx="769" cy="542" fill="hsl(158, 75%, 70%)" opacity="0.71"></circle><circle r="7.5" cx="431" cy="161" fill="hsl(184, 75%, 70%)" opacity="0.75"></circle><circle r="9" cx="734" cy="489" fill="hsl(158, 75%, 70%)" opacity="0.85"></circle><circle r="10.5" cx="83" cy="553" fill="hsl(181, 75%, 70%)" opacity="0.32"></circle><circle r="12" cx="17" cy="90" fill="hsl(194, 75%, 70%)" opacity="0.29"></circle><circle r="9" cx="610" cy="749" fill="hsl(174, 75%, 70%)" opacity="0.48"></circle><circle r="5" cx="628" cy="131" fill="hsl(126, 75%, 70%)" opacity="0.27"></circle><circle r="12.5" cx="472" cy="436" fill="hsl(193, 75%, 70%)" opacity="0.73"></circle><circle r="12.5" cx="401" cy="583" fill="hsl(152, 75%, 70%)" opacity="0.28"></circle><circle r="17.5" cx="132" cy="43" fill="hsl(290, 75%, 70%)" opacity="0.53"></circle><circle r="10.5" cx="443" cy="618" fill="hsl(181, 75%, 70%)" opacity="0.17"></circle><circle r="7" cx="245" cy="265" fill="hsl(37, 75%, 70%)" opacity="0.52"></circle><circle r="8" cx="575" cy="498" fill="hsl(185, 75%, 70%)" opacity="0.58"></circle><circle r="9.5" cx="222" cy="111" fill="hsl(179, 75%, 70%)" opacity="0.93"></circle><circle r="10" cx="424" cy="508" fill="hsl(163, 75%, 70%)" opacity="0.39"></circle><circle r="3.5" cx="622" cy="8" fill="hsl(123, 75%, 70%)" opacity="0.79"></circle><circle r="13" cx="169" cy="476" fill="hsl(97, 75%, 70%)" opacity="0.61"></circle><circle r="11.5" cx="645" cy="773" fill="hsl(166, 75%, 70%)" opacity="0.87"></circle><circle r="7.5" cx="408" cy="694" fill="hsl(152, 75%, 70%)" opacity="0.43"></circle><circle r="9" cx="776" cy="455" fill="hsl(158, 75%, 70%)" opacity="0.88"></circle><circle r="12" cx="30" cy="412" fill="hsl(193, 75%, 70%)" opacity="0.65"></circle><circle r="11.5" cx="91" cy="694" fill="hsl(173, 75%, 70%)" opacity="0.70"></circle><circle r="5.5" cx="247" cy="720" fill="hsl(37, 75%, 70%)" opacity="0.34"></circle><circle r="9" cx="510" cy="157" fill="hsl(195, 75%, 70%)" opacity="0.47"></circle><circle r="11" cx="452" cy="65" fill="hsl(264, 75%, 70%)" opacity="0.60"></circle><circle r="9.5" cx="540" cy="576" fill="hsl(192, 75%, 70%)" opacity="0.53"></circle><circle r="5.5" cx="323" cy="492" fill="hsl(62, 75%, 70%)" opacity="0.57"></circle><circle r="8" cx="703" cy="784" fill="hsl(160, 75%, 70%)" opacity="0.99"></circle><circle r="7" cx="652" cy="626" fill="hsl(164, 75%, 70%)" opacity="0.88"></circle><circle r="7" cx="310" cy="596" fill="hsl(52, 75%, 70%)" opacity="0.45"></circle><circle r="3" cx="259" cy="564" fill="hsl(34, 75%, 70%)" opacity="0.65"></circle><circle r="8.5" cx="110" cy="781" fill="hsl(163, 75%, 70%)" opacity="0.17"></circle><circle r="10.5" cx="535" cy="691" fill="hsl(195, 75%, 70%)" opacity="0.71"></circle><circle r="9" cx="370" cy="623" fill="hsl(114, 75%, 70%)" opacity="0.27"></circle><circle r="13.5" cx="596" cy="334" fill="hsl(177, 75%, 70%)" opacity="0.30"></circle><circle r="8" cx="628" cy="52" fill="hsl(114, 75%, 70%)" opacity="0.89"></circle><circle r="9" cx="291" cy="244" fill="hsl(44, 75%, 70%)" opacity="0.76"></circle><circle r="6.5" cx="724" cy="41" fill="hsl(79, 75%, 70%)" opacity="0.54"></circle><circle r="14.5" cx="298" cy="89" fill="hsl(186, 75%, 70%)" opacity="0.92"></circle><circle r="5" cx="569" cy="136" fill="hsl(165, 75%, 70%)" opacity="0.66"></circle><circle r="5" cx="163" cy="575" fill="hsl(97, 75%, 70%)" opacity="0.18"></circle><circle r="10" cx="44" cy="527" fill="hsl(193, 75%, 70%)" opacity="0.91"></circle><circle r="7.5" cx="139" cy="165" fill="hsl(157, 75%, 70%)" opacity="0.22"></circle><circle r="9.5" cx="108" cy="617" fill="hsl(163, 75%, 70%)" opacity="0.57"></circle><circle r="6.5" cx="563" cy="472" fill="hsl(185, 75%, 70%)" opacity="0.16"></circle><circle r="6.5" cx="505" cy="713" fill="hsl(198, 75%, 70%)" opacity="0.32"></circle><circle r="6.5" cx="664" cy="32" fill="hsl(97, 75%, 70%)" opacity="0.72"></circle><circle r="9.5" cx="486" cy="651" fill="hsl(196, 75%, 70%)" opacity="0.29"></circle><circle r="4" cx="589" cy="136" fill="hsl(148, 75%, 70%)" opacity="0.89"></circle><circle r="11" cx="430" cy="457" fill="hsl(173, 75%, 70%)" opacity="0.75"></circle><circle r="10.5" cx="470" cy="174" fill="hsl(193, 75%, 70%)" opacity="0.31"></circle><circle r="9" cx="408" cy="364" fill="hsl(152, 75%, 70%)" opacity="0.36"></circle><circle r="12.5" cx="177" cy="76" fill="hsl(244, 75%, 70%)" opacity="0.44"></circle><circle r="9.5" cx="588" cy="247" fill="hsl(177, 75%, 70%)" opacity="0.91"></circle><circle r="6" cx="242" cy="202" fill="hsl(37, 75%, 70%)" opacity="0.47"></circle><circle r="11" cx="466" cy="227" fill="hsl(193, 75%, 70%)" opacity="0.50"></circle><circle r="8.5" cx="735" cy="765" fill="hsl(158, 75%, 70%)" opacity="0.48"></circle><circle r="6" cx="296" cy="308" fill="hsl(44, 75%, 70%)" opacity="0.58"></circle><circle r="9.5" cx="559" cy="656" fill="hsl(189, 75%, 70%)" opacity="0.15"></circle><circle r="15" cx="67" cy="117" fill="hsl(232, 75%, 70%)" opacity="0.82"></circle><circle r="9.5" cx="754" cy="322" fill="hsl(158, 75%, 70%)" opacity="0.11"></circle><circle r="6.5" cx="361" cy="187" fill="hsl(104, 75%, 70%)" opacity="0.77"></circle><circle r="7.5" cx="419" cy="294" fill="hsl(163, 75%, 70%)" opacity="0.22"></circle><circle r="6" cx="410" cy="734" fill="hsl(152, 75%, 70%)" opacity="0.53"></circle><circle r="9" cx="703" cy="705" fill="hsl(160, 75%, 70%)" opacity="0.50"></circle><circle r="11.5" cx="112" cy="310" fill="hsl(163, 75%, 70%)" opacity="0.41"></circle><circle r="10.5" cx="119" cy="742" fill="hsl(152, 75%, 70%)" opacity="0.93"></circle><circle r="6" cx="243" cy="488" fill="hsl(37, 75%, 70%)" opacity="0.96"></circle><circle r="8.5" cx="416" cy="258" fill="hsl(163, 75%, 70%)" opacity="0.20"></circle><circle r="11.5" cx="483" cy="43" fill="hsl(258, 75%, 70%)" opacity="0.96"></circle><circle r="11.5" cx="522" cy="114" fill="hsl(200, 75%, 70%)" opacity="0.74"></circle><circle r="7" cx="713" cy="634" fill="hsl(159, 75%, 70%)" opacity="0.36"></circle><circle r="9.5" cx="696" cy="226" fill="hsl(160, 75%, 70%)" opacity="0.15"></circle><circle r="11.5" cx="72" cy="164" fill="hsl(202, 75%, 70%)" opacity="0.38"></circle><circle r="8" cx="505" cy="543" fill="hsl(198, 75%, 70%)" opacity="0.38"></circle><circle r="15.5" cx="132" cy="103" fill="hsl(244, 75%, 70%)" opacity="0.16"></circle><circle r="9.5" cx="165" cy="138" fill="hsl(166, 75%, 70%)" opacity="0.60"></circle><circle r="3.5" cx="256" cy="610" fill="hsl(34, 75%, 70%)" opacity="0.87"></circle><circle r="12.5" cx="22" cy="762" fill="hsl(192, 75%, 70%)" opacity="0.41"></circle><circle r="4" cx="711" cy="594" fill="hsl(160, 75%, 70%)" opacity="0.39"></circle><circle r="10.5" cx="571" cy="27" fill="hsl(167, 75%, 70%)" opacity="1.00"></circle><circle r="11" cx="638" cy="422" fill="hsl(166, 75%, 70%)" opacity="0.21"></circle><circle r="9" cx="393" cy="173" fill="hsl(148, 75%, 70%)" opacity="0.33"></circle><circle r="8" cx="111" cy="466" fill="hsl(163, 75%, 70%)" opacity="0.24"></circle><circle r="5" cx="764" cy="789" fill="hsl(158, 75%, 70%)" opacity="0.58"></circle><circle r="13" cx="92" cy="20" fill="hsl(281, 75%, 70%)" opacity="0.55"></circle><circle r="4" cx="244" cy="771" fill="hsl(37, 75%, 70%)" opacity="0.85"></circle><circle r="8.5" cx="394" cy="327" fill="hsl(140, 75%, 70%)" opacity="0.93"></circle><circle r="5.5" cx="635" cy="190" fill="hsl(168, 75%, 70%)" opacity="0.23"></circle><circle r="8.5" cx="204" cy="527" fill="hsl(59, 75%, 70%)" opacity="0.86"></circle><circle r="9" cx="20" cy="679" fill="hsl(192, 75%, 70%)" opacity="0.50"></circle><circle r="6" cx="660" cy="162" fill="hsl(130, 75%, 70%)" opacity="0.81"></circle><circle r="6" cx="136" cy="567" fill="hsl(139, 75%, 70%)" opacity="0.77"></circle><circle r="11" cx="216" cy="402" fill="hsl(49, 75%, 70%)" opacity="0.54"></circle><circle r="8" cx="464" cy="480" fill="hsl(193, 75%, 70%)" opacity="0.98"></circle><circle r="5" cx="627" cy="169" fill="hsl(148, 75%, 70%)" opacity="0.12"></circle><circle r="9" cx="556" cy="265" fill="hsl(189, 75%, 70%)" opacity="0.99"></circle><circle r="11" cx="695" cy="275" fill="hsl(160, 75%, 70%)" opacity="0.81"></circle><circle r="12.5" cx="28" cy="253" fill="hsl(193, 75%, 70%)" opacity="0.33"></circle><circle r="11.5" cx="130" cy="262" fill="hsl(139, 75%, 70%)" opacity="0.23"></circle><circle r="8.5" cx="636" cy="580" fill="hsl(168, 75%, 70%)" opacity="0.52"></circle><circle r="15" cx="63" cy="60" fill="hsl(255, 75%, 70%)" opacity="0.24"></circle><circle r="7.5" cx="390" cy="506" fill="hsl(140, 75%, 70%)" opacity="0.53"></circle><circle r="12" cx="71" cy="432" fill="hsl(186, 75%, 70%)" opacity="0.33"></circle><circle r="8.5" cx="521" cy="416" fill="hsl(197, 75%, 70%)" opacity="0.56"></circle><circle r="17" cx="289" cy="26" fill="hsl(296, 75%, 70%)" opacity="0.85"></circle><circle r="11" cx="59" cy="588" fill="hsl(190, 75%, 70%)" opacity="0.26"></circle><circle r="6.5" cx="328" cy="559" fill="hsl(74, 75%, 70%)" opacity="0.72"></circle><circle r="9" cx="173" cy="776" fill="hsl(97, 75%, 70%)" opacity="0.44"></circle><circle r="9" cx="486" cy="88" fill="hsl(233, 75%, 70%)" opacity="0.68"></circle><circle r="8.5" cx="601" cy="84" fill="hsl(134, 75%, 70%)" opacity="0.71"></circle><circle r="11.5" cx="408" cy="129" fill="hsl(193, 75%, 70%)" opacity="0.98"></circle><circle r="9" cx="344" cy="348" fill="hsl(87, 75%, 70%)" opacity="0.63"></circle><circle r="7" cx="22" cy="291" fill="hsl(192, 75%, 70%)" opacity="0.41"></circle><circle r="6" cx="274" cy="413" fill="hsl(35, 75%, 70%)" opacity="0.91"></circle><circle r="7.5" cx="14" cy="520" fill="hsl(192, 75%, 70%)" opacity="0.91"></circle><circle r="7.5" cx="176" cy="280" fill="hsl(84, 75%, 70%)" opacity="0.20"></circle><circle r="5" cx="252" cy="537" fill="hsl(34, 75%, 70%)" opacity="0.75"></circle><circle r="11.5" cx="91" cy="210" fill="hsl(173, 75%, 70%)" opacity="0.93"></circle><circle r="10" cx="377" cy="287" fill="hsl(127, 75%, 70%)" opacity="0.76"></circle><circle r="7.5" cx="140" cy="654" fill="hsl(126, 75%, 70%)" opacity="0.70"></circle><circle r="12.5" cx="595" cy="390" fill="hsl(177, 75%, 70%)" opacity="0.12"></circle><circle r="17" cx="402" cy="32" fill="hsl(312, 75%, 70%)" opacity="0.95"></circle><circle r="11" cx="553" cy="315" fill="hsl(189, 75%, 70%)" opacity="0.58"></circle><circle r="8" cx="456" cy="296" fill="hsl(188, 75%, 70%)" opacity="0.19"></circle><circle r="8.5" cx="446" cy="352" fill="hsl(181, 75%, 70%)" opacity="0.65"></circle><circle r="5.5" cx="607" cy="122" fill="hsl(137, 75%, 70%)" opacity="0.85"></circle><circle r="9.5" cx="774" cy="131" fill="hsl(86, 75%, 70%)" opacity="0.31"></circle><circle r="7.5" cx="784" cy="770" fill="hsl(158, 75%, 70%)" opacity="0.62"></circle><circle r="4" cx="370" cy="737" fill="hsl(114, 75%, 70%)" opacity="0.23"></circle><circle r="7.5" cx="545" cy="145" fill="hsl(181, 75%, 70%)" opacity="0.95"></circle><circle r="9.5" cx="439" cy="722" fill="hsl(181, 75%, 70%)" opacity="0.62"></circle><circle r="4" cx="216" cy="771" fill="hsl(49, 75%, 70%)" opacity="0.90"></circle><circle r="5.5" cx="280" cy="739" fill="hsl(38, 75%, 70%)" opacity="0.87"></circle><circle r="5" cx="307" cy="418" fill="hsl(52, 75%, 70%)" opacity="0.89"></circle></svg>